<mxfile host="Electron" modified="2024-04-22T15:01:10.980Z" agent="Mozilla/5.0 (Windows NT 10.0; Win64; x64) AppleWebKit/537.36 (KHTML, like Gecko) draw.io/24.2.5 Chrome/120.0.6099.109 Electron/28.1.0 Safari/537.36" etag="C2HCaZKbzSCufFq4TsBH" version="24.2.5" type="device">
  <diagram name="Página-1" id="7ve5TZVPZGnvmQFHJlNO">
    <mxGraphModel dx="1000" dy="591" grid="1" gridSize="10" guides="1" tooltips="1" connect="1" arrows="1" fold="1" page="1" pageScale="1" pageWidth="827" pageHeight="1169" math="0" shadow="0">
      <root>
        <mxCell id="0" />
        <mxCell id="1" parent="0" />
        <mxCell id="3nQhZn90yMpWdJ_Ba0Em-13" style="edgeStyle=orthogonalEdgeStyle;rounded=0;orthogonalLoop=1;jettySize=auto;html=1;entryX=0;entryY=0.5;entryDx=0;entryDy=0;entryPerimeter=0;endArrow=none;endFill=0;fillColor=#f8cecc;strokeColor=#b85450;" parent="1" source="3nQhZn90yMpWdJ_Ba0Em-7" target="3nQhZn90yMpWdJ_Ba0Em-10" edge="1">
          <mxGeometry relative="1" as="geometry" />
        </mxCell>
        <mxCell id="3nQhZn90yMpWdJ_Ba0Em-15" style="edgeStyle=orthogonalEdgeStyle;shape=connector;rounded=0;orthogonalLoop=1;jettySize=auto;html=1;entryX=0;entryY=0.5;entryDx=0;entryDy=0;entryPerimeter=0;labelBackgroundColor=default;strokeColor=#82b366;fontFamily=Helvetica;fontSize=11;fontColor=default;endArrow=none;endFill=0;fillColor=#d5e8d4;" parent="1" source="3nQhZn90yMpWdJ_Ba0Em-8" target="3nQhZn90yMpWdJ_Ba0Em-11" edge="1">
          <mxGeometry relative="1" as="geometry" />
        </mxCell>
        <mxCell id="3nQhZn90yMpWdJ_Ba0Em-16" style="edgeStyle=orthogonalEdgeStyle;shape=connector;rounded=0;orthogonalLoop=1;jettySize=auto;html=1;entryX=0;entryY=0.5;entryDx=0;entryDy=0;entryPerimeter=0;labelBackgroundColor=default;strokeColor=#6c8ebf;fontFamily=Helvetica;fontSize=11;fontColor=default;endArrow=none;endFill=0;fillColor=#dae8fc;" parent="1" source="3nQhZn90yMpWdJ_Ba0Em-9" target="3nQhZn90yMpWdJ_Ba0Em-12" edge="1">
          <mxGeometry relative="1" as="geometry" />
        </mxCell>
        <mxCell id="3nQhZn90yMpWdJ_Ba0Em-10" value="140Ω" style="pointerEvents=1;verticalLabelPosition=bottom;shadow=0;dashed=0;align=center;html=1;verticalAlign=top;shape=mxgraph.electrical.resistors.resistor_2;" parent="1" vertex="1">
          <mxGeometry x="140" y="270" width="100" height="20" as="geometry" />
        </mxCell>
        <mxCell id="3nQhZn90yMpWdJ_Ba0Em-11" value="100&lt;span style=&quot;background-color: initial;&quot;&gt;Ω&lt;/span&gt;" style="pointerEvents=1;verticalLabelPosition=bottom;shadow=0;dashed=0;align=center;html=1;verticalAlign=top;shape=mxgraph.electrical.resistors.resistor_2;" parent="1" vertex="1">
          <mxGeometry x="140" y="310" width="100" height="20" as="geometry" />
        </mxCell>
        <mxCell id="3nQhZn90yMpWdJ_Ba0Em-12" value="100Ω" style="pointerEvents=1;verticalLabelPosition=bottom;shadow=0;dashed=0;align=center;html=1;verticalAlign=top;shape=mxgraph.electrical.resistors.resistor_2;" parent="1" vertex="1">
          <mxGeometry x="140" y="350" width="100" height="20" as="geometry" />
        </mxCell>
        <mxCell id="3nQhZn90yMpWdJ_Ba0Em-26" value="" style="group" parent="1" vertex="1" connectable="0">
          <mxGeometry x="310" y="223" width="247.5" height="180" as="geometry" />
        </mxCell>
        <mxCell id="9lYTIOy7iqZjpeC6-Jbm-11" value="" style="verticalLabelPosition=bottom;shadow=0;dashed=0;align=center;html=1;verticalAlign=top;shape=mxgraph.electrical.opto_electronics.led_1;pointerEvents=1;fontFamily=Helvetica;fontSize=11;fontColor=default;direction=east;" parent="3nQhZn90yMpWdJ_Ba0Em-26" vertex="1">
          <mxGeometry width="247.5" height="180" as="geometry" />
        </mxCell>
        <mxCell id="3nQhZn90yMpWdJ_Ba0Em-27" style="edgeStyle=orthogonalEdgeStyle;shape=connector;rounded=0;orthogonalLoop=1;jettySize=auto;html=1;exitX=1;exitY=0.54;exitDx=0;exitDy=0;exitPerimeter=0;entryX=1;entryY=0.54;entryDx=0;entryDy=0;entryPerimeter=0;labelBackgroundColor=default;strokeColor=default;fontFamily=Helvetica;fontSize=11;fontColor=default;endArrow=none;endFill=0;" parent="3nQhZn90yMpWdJ_Ba0Em-26" source="3nQhZn90yMpWdJ_Ba0Em-18" target="9lYTIOy7iqZjpeC6-Jbm-11" edge="1">
          <mxGeometry relative="1" as="geometry">
            <Array as="points">
              <mxPoint x="133" y="70" />
              <mxPoint x="133" y="97" />
            </Array>
          </mxGeometry>
        </mxCell>
        <mxCell id="3nQhZn90yMpWdJ_Ba0Em-18" value="" style="verticalLabelPosition=bottom;shadow=0;dashed=0;align=center;html=1;verticalAlign=top;shape=mxgraph.electrical.opto_electronics.led_1;pointerEvents=1;fontFamily=Helvetica;fontSize=11;direction=east;fillColor=#f8cecc;strokeColor=#b85450;" parent="3nQhZn90yMpWdJ_Ba0Em-26" vertex="1">
          <mxGeometry x="85" y="61.5" width="27.5" height="15" as="geometry" />
        </mxCell>
        <mxCell id="3nQhZn90yMpWdJ_Ba0Em-28" style="edgeStyle=orthogonalEdgeStyle;shape=connector;rounded=0;orthogonalLoop=1;jettySize=auto;html=1;exitX=1;exitY=0.54;exitDx=0;exitDy=0;exitPerimeter=0;entryX=1;entryY=0.54;entryDx=0;entryDy=0;entryPerimeter=0;labelBackgroundColor=default;strokeColor=default;fontFamily=Helvetica;fontSize=11;fontColor=default;endArrow=none;endFill=0;" parent="3nQhZn90yMpWdJ_Ba0Em-26" source="3nQhZn90yMpWdJ_Ba0Em-21" target="9lYTIOy7iqZjpeC6-Jbm-11" edge="1">
          <mxGeometry relative="1" as="geometry">
            <Array as="points">
              <mxPoint x="210" y="97" />
              <mxPoint x="210" y="97" />
            </Array>
          </mxGeometry>
        </mxCell>
        <mxCell id="3nQhZn90yMpWdJ_Ba0Em-21" value="" style="verticalLabelPosition=bottom;shadow=0;dashed=0;align=center;html=1;verticalAlign=top;shape=mxgraph.electrical.opto_electronics.led_1;pointerEvents=1;fontFamily=Helvetica;fontSize=11;direction=east;fillColor=#d5e8d4;strokeColor=#82b366;" parent="3nQhZn90yMpWdJ_Ba0Em-26" vertex="1">
          <mxGeometry x="85" y="89" width="27.5" height="15" as="geometry" />
        </mxCell>
        <mxCell id="3nQhZn90yMpWdJ_Ba0Em-29" style="edgeStyle=orthogonalEdgeStyle;shape=connector;rounded=0;orthogonalLoop=1;jettySize=auto;html=1;exitX=1;exitY=0.54;exitDx=0;exitDy=0;exitPerimeter=0;entryX=1;entryY=0.54;entryDx=0;entryDy=0;entryPerimeter=0;labelBackgroundColor=default;strokeColor=default;fontFamily=Helvetica;fontSize=11;fontColor=default;endArrow=none;endFill=0;" parent="3nQhZn90yMpWdJ_Ba0Em-26" source="3nQhZn90yMpWdJ_Ba0Em-22" target="9lYTIOy7iqZjpeC6-Jbm-11" edge="1">
          <mxGeometry relative="1" as="geometry">
            <Array as="points">
              <mxPoint x="133" y="127" />
              <mxPoint x="133" y="97" />
            </Array>
          </mxGeometry>
        </mxCell>
        <mxCell id="3nQhZn90yMpWdJ_Ba0Em-22" value="" style="verticalLabelPosition=bottom;shadow=0;dashed=0;align=center;html=1;verticalAlign=top;shape=mxgraph.electrical.opto_electronics.led_1;pointerEvents=1;fontFamily=Helvetica;fontSize=11;direction=east;fillColor=#dae8fc;strokeColor=#6c8ebf;" parent="3nQhZn90yMpWdJ_Ba0Em-26" vertex="1">
          <mxGeometry x="85" y="119" width="27.5" height="15" as="geometry" />
        </mxCell>
        <mxCell id="3nQhZn90yMpWdJ_Ba0Em-32" value="&lt;font style=&quot;font-size: 5px;&quot;&gt;R&lt;/font&gt;" style="text;html=1;strokeColor=none;fillColor=none;align=center;verticalAlign=middle;whiteSpace=wrap;rounded=0;fontSize=11;fontFamily=Helvetica;fontColor=#FF0000;" parent="3nQhZn90yMpWdJ_Ba0Em-26" vertex="1">
          <mxGeometry x="94.75" y="65.25" width="4" height="5.5" as="geometry" />
        </mxCell>
        <mxCell id="3nQhZn90yMpWdJ_Ba0Em-33" value="&lt;font color=&quot;#009900&quot; style=&quot;font-size: 5px;&quot;&gt;G&lt;/font&gt;" style="text;html=1;strokeColor=none;fillColor=none;align=center;verticalAlign=middle;whiteSpace=wrap;rounded=0;fontSize=11;fontFamily=Helvetica;fontColor=#FF0000;" parent="3nQhZn90yMpWdJ_Ba0Em-26" vertex="1">
          <mxGeometry x="94.75" y="92.75" width="4" height="5.5" as="geometry" />
        </mxCell>
        <mxCell id="3nQhZn90yMpWdJ_Ba0Em-35" value="&lt;font color=&quot;#0000cc&quot; style=&quot;font-size: 5px;&quot;&gt;B&lt;/font&gt;" style="text;html=1;strokeColor=none;fillColor=none;align=center;verticalAlign=middle;whiteSpace=wrap;rounded=0;fontSize=11;fontFamily=Helvetica;fontColor=#FF0000;" parent="3nQhZn90yMpWdJ_Ba0Em-26" vertex="1">
          <mxGeometry x="94.75" y="121.75" width="4" height="5.5" as="geometry" />
        </mxCell>
        <mxCell id="3nQhZn90yMpWdJ_Ba0Em-31" value="" style="shape=image;verticalLabelPosition=bottom;labelBackgroundColor=default;verticalAlign=top;aspect=fixed;imageAspect=0;image=data:image/png,iVBORw0KGgoAAAANSUhEUgAAAyQAAAeACAYAAAA/yJPvAAAABGdBTUEAALGPC/xhBQAAACBjSFJNAAB6JgAAgIQAAPoAAACA6AAAdTAAAOpgAAA6mAAAF3CculE8AAAACXBIWXMAABJ0AAASdAHeZh94AAAABmJLR0QA/wD/AP+gvaeTAAAAJXRFWHRkYXRlOmNyZWF0ZQAyMDE5LTA3LTAyVDA0OjIwOjMwKzAwOjAwD9ZnkwAAACV0RVh0ZGF0ZTptb2RpZnkAMjAxOS0wNy0wMlQwNDoyMDozMCswMDowMH6L3y8AAIK7SURBVHhe7N0JgGRXXej/U9Xb9KzJTEIIEMiEJQsKCQQCeYoofxX1PZ8booACioDkrw8jPHgQQEAeCqIiPkVAEOQhioog/sUFNCiyyRIIJIiQhCSEhCSzT+9d/3NunZ5MQpbunu7+1fL5QM2951Z1T5KZvnW/dbdWJ0sAAAAB2nUKAACw4QQJAAAQRpAAAABhBAkAABBGkAAAAGEECQAAEEaQAAAAYQQJAAAQRpAAAABhBAkAABBGkAAAAGEECQAAEEaQAAAAYQQJAAAQRpAAAABhBAkAABBGkAAAAGEECQAAEEaQAAAAYQQJAAAQRpAAAABhBAkAABBGkAAAAGEECQAAEEaQAAAAYQQJAAAQRpAAAABhBAkAABBGkAAAAGEECQAAEEaQAAAAYQQJAAAQRpAAAABhBAkAABBGkAAAAGEECQAAEEaQAAAAYQQJAAAQRpAAAABhBAkAABBGkAAAAGEECQAAEEaQAAAAYQQJAAAQRpAAAABhBAkAABBGkAAAAGEECQAAEEaQAAAAYQQJAAAQRpAAAABhBAkAABBGkAAAAGEECQAAEEaQAAAAYQQJAAAQRpAAAABhBAkAABBGkAAAAGFanazOA8AxW3pbWVhYaOYXFhab6eLiYn106muWpqlZtmRp2dJrlp5bWt5qtZppUebLsLuszHefa7e706Vx93WtNDIyctR8O0/bzWvb7TLffS0AG0uQALAs5e1ifn4hB8JCExklOEoslHF3WsKjGxz9qARJCZMSKEfHS1k2OjraBEy7PdJMAVg7ggSARnk7WAqNpcfRAVKCg264lFhZCpTR0e78yMhStAgWgJUQJABDpoRFCY25ublmOj8/38SH4FgbS8FSQqXsWRkbG617WEbqKwA4miABGFDdPR4lPOab6FiKEOERo4TKUqCUOBkbG2uixR4VYNgJEoABUFbls7Oz37Tng97X3ZtS9qJ0I2UpWACGhSAB6EMlNsqejxIfSyHC4Ch7TcbHS5yM5el4EykAg0qQAPS4spouATI7O1cDxGFXw6Yc7lWiZClOSqg41AsYFIIEoMeU2Ch7P8qej6W9IFbV3NbS+SglUsreFId5Af1KkAD0gBIeMzMzRyLEqpmVKoFSwmRiYqKZlr0qAP1AkAAEKHtBZmZmmwgpU6ti1lKJkaPjpMQKQK8SJAAbZGkvSAmQchgWbJRyw8YSJ/aeAL1IkACsk7J6LfExPT3tRHR6SjnvZNOm8SZQnHsCRBMkAGuoGyEzaWqqez6IVSy9rlyxa9OmieYhToAIggTgGJXV6PT0TPMQIfSzcjjXpk2bmjhxWWFgowgSgFUoq84SH1NT005KZyCJE2CjCBKAFejuCREhDI/uTRnH0uRk96R4cQKsNUECcBfKFbHKnpDysMpk2JUo2bx50tW6gDUjSABuR1k1lj0hhw5Npfn5+boUWFJOgJ+c3JQfk81lhQFWS5AAHKVcnndqaqo5NMvqEZan7DUpcVLONwFYKUECDL1yf5ClvSELCwt1KbBS5fySEiblkC6XEAaWS5AAQ6vsDTl8+HCzNwRYW+Uck82bN9trAtwlQQIMlbLKKyenHz7s3BDYCGWvSdlj4lwT4I4IEmAolMOySoSUR5kHNla5Ile5r8mWLZNpdHS0LgUQJMCAK3tBSoS4ZC/0jqVLB09MjNclwDATJMBAKvcOOXjwUHMDQ6A3lRsudg/n2lSXAMNIkAADo6zOygnq5UT1uTnnh0C/KFfkKmFSHm62CMNHkAB9r6zGyr1DDh06nBYWnB8C/arEyFKYuGwwDA9BAvStsvoq54eUQ7OsymCwbNmyuXmUq3QBg02QAH2nrLbKSeolRFwxCwbX0h4TYQKDTZAAfaXsEekemuWO6jAsSpiUKClxIkxg8AgSoOeV1dT0dHePiHNEYHgt3WSxxImT32FwCBKgp5UQOXCghIg9IkBXCZOlPSbCBPqfIAF6Url8b9kjUm5sCHB7Sphs3bo5TU4KE+hnggToKeWGhvv3H2ymAMtRLhG8bduWtGmTGyxCPxIkQE8oh2QdOHCw2TMCsBrj42M5TLY2d4AH+ocgAUKVVVC5alZ5WB0Ba2FyclPaunVrGhlxRS7oB4IECFP2hpS9Ik5YB9ZaOaeknF+yZcuWugToVYIE2HDl/JBy5azZ2dm6BGB9lL0k27dvSxMTE3UJ0GsECbBhyl3Vyx6Rcpd1gI00MTHeHMY1NjZalwC9QpAA666sZsod1stlfK1ygCjlMK7u+SVb3PEdeoggAdZVOTxr374D7icC9IwSI9u3b3WZYOgRggRYF2XVUg7PKntGAHpROYxr+/btrsYFwQQJsOZmZmbT/v0HXD0L6HnlMK5y75LNmyfrEmCjCRJgzZTVSQkRJ60D/aac7L5jx/Y0Ouqkd9hoggRYE+WeIiVGypW0APrVli2bm5Pey54TYGMIEuCYLCwsNiEyMzNTlwD0t9HRkebckvHxsboEWE+CBFi1Q4cOu5QvMLDKeSXl/BJ7S2B9CRJgxcrJ6nv37m8u6QswyEZGRtKOHdvS+Ph4XQKsNUECrEg5Yb0comXVAQyTcm5J2VsCrD1BAixLOVm93FfEFbSAYdW9EteO5hwTYO0IEuAuzc6Wu63vd18RYOi5bwmsPUEC3Kly0np5AHCLTZsm0vbt21K77S7vcKwECXC7nLgOcOdKjBx3XLk8sBPe4VgIEuCbTE1Npf37DzpxHWAZ3EwRjo0gAY4oq4Nyrki56zoAy+eEd1g9QQI05ubm0969+5y4DrBKZQ/Jjh3bm/NLgOUTJEBzKd+yZwSAY1euwFVOeAeWR5DAkCsh4t4iAGtrfHwsHXfcDlfhgmUQJDCkyo0O9+zZ5ypaAOukxMjxx+9IY2NjdQlwewQJDKFyo8M9e/a6ihbABiiHb7mRItwxQQJD5tChw82NDv3oA2ycTZs2pR07trk0MNwOQQJDovyou6QvQJzR0dHmEK6REZcGhqMJEhgC8/MLzSFaLukLEKvd7l4aeGLCpYFhiSCBATczM5P27t3vEC2AHrJt29bmDu+AIIGBNjU1lfbvPyhGAHrQ5GQ5r2R7HcHwEiQwoA4cONicwA5A7xofH2/OK3GyO8NMkMCAKT/S5RCtcqgWAL3Pye4MO0ECA8TNDgH608hIu7mzu5soMowECQwIV9IC6G/lsK3jjnMFLoaPIIEBUPaIlD0jZQ8JAP2rRMnWrVtcgYuhIkigz01PTzfnjAAwODZvnkzbt2+rIxhsggT6WLmKVrmaFgCDpxy6VQ7hcgUuBp0ggT61b9+B5j4jAAyucpJ7uQJXu92uS2DwCBLoM+VHdv/+EiPTdQkAg6xcFnjXruPtKWFgCRLoM+XkdfcYARgu7lXCIBMk0CfKj+revSVGZusSAIZJuVfJzp3HixIGjgMSoQ+IEQAWFhbTTTftcb8pBo49JNDjyo/ozTfvdfd1ABrlBPedO49rDuOCQSBIoIeVGx2Wc0bECABHa7db6fjjj2uuwgX9TpBAjyoxUvaMzM/P1yUAcIty1a0SJePjooT+JkigB5Xjg0uMOE4YgDtToqTcPLHcRBH6lZPaoceIEQCWq3yuvHfv/jQ97XLw9C9BAj1k6TAtMQLAcpUo2bdvv3tU0bcECfSIboy4nCMAK7e0p2R21kVQ6D+CBHpAeSPZs6ecwC5GAFidpfcSV2ak3wgSCFbeQLr3GXE1LQCOzS0fcHlPoX8IEgjk0ywA1triYveDLocA0y8ECQQpMeJ4XwDWg4uk0E8ECQRxRRQA1lOJEVFCPxAkEMA14wHYCCVG9uzZ1+yVh14lSGCDlT0j09PTdQQA66uc4H7TTXuaw7igFwkS2EAHDhxMU1NiBICNVaLEnhJ6lSCBDTI1NZUOHTpcRwCwscoVHcshw9BrBAlsgHLy+v79B+sIAGJ4P6IXCRJYZ2U3eflEym5yAHrB4cOH7bGnpwgSWEdL14EXIwD0knJOo0vP0ysECayTEiElRlzVBIBeVPbel/NKIJoggXVSVvTlcC0A6EXlg7O9e/elhQUfnBFLkMA62L//gF3hAPS8EiN79ji0mFiCBNbYoUOH0uHDU3UEAL1t6R4lEEWQwBqanp5JBw4cqiMA6A+zs7Np3z73KCGGIIE1Uk4MtDIHoF9NTU2ngwd9qMbGEySwBrrH4O5zDC4Afa0EyczMbB3BxhAksAbKnhGX9wVgEJT3tIWFhTqC9SdI4BiVm0uVY28BYBCUD9js9WcjCRI4BuUk9kOHDtcRAAyGcuWtcgl72AiCBFaprKydxA7AoConubuMPRtBkMAqlN3YdmcDMOjKXpJyFUlYT4IEVmHvXif8ATAc9u7d58ItrCtBAivUvSTiTB0BwGArl7YvUQLrRZDACpQQcdMoAIbN7Oxcc1VJWA+CBJapHKJVDtUCgGFUripZTnSHtSZIYJnK7monsQMwzMpJ7uUqk7CWBAksQ9lNPTdnBQzAcCsfzDlagLUmSOAulLuwu/khAHS5aSJrTZDAnSiXOdy3z0oXAI5WbphYPrCDtSBI4E6UT4DcbwQAvlk5dMv9SVgLggTuwNTUVJqedr8RALg9JUYcusVaECRwO8pekf37XW8dAO5M+eCuHL4Fx0KQwG0sXUHEJX4B4K6VK1E6vJljIUjgNsoVtebm5uoIALgzLgXMsRIkcJTZ2TmX+AWAFSof5JU9JbAaggSq8gnPvn0O1QKA1Sgf6JUP9mClBAlULvELAMdm7959PthjxQQJZOXmTlNT03UEAKxGuRSwQ7dYKUHC0Fs6VAsAOHblMsAuDsNKCBKG3sGDh9LCgjvNAsBacdUtVkKQMNTKJzhu6AQAa6uck+nQLZZLkDDU9u074OQ7AFgH3ft6zdcR3DFBwtAqK8r5eStKAFgv5QqWcFcECUOp7Eou544AAOune2i0Gw5z5wQJQ6l8YuNQLQBYfwcOlIvHuM8Xd0yQMHTK/UZmZmbrCABYT+UDwP37neDOHRMkDJXuDZsczwoAG2lmZsYNiLlDgoShUg7VWlx0qBYAbLRyGWCHS3N7BAlDY3Z2Lk1Pz9QRALCRylEKrrrF7REkDA0rQQCIVQ7bcsl9bkuQMBTK3ditAAEgXrkpMRxNkDDwyvGq5bhVACBeuTeJQ6g5miBh4JUbIDqJDgB6hxPcOZogYaCVw7QOHXKHWADoJeVGid6fWSJIGGjl7rAAQO8pQVKuvAWChIFV7sZebsQEAPQe53iyRJAwkKzkAKD3lcsAl5PcGW6ChIHkOucA0B/27/cB4rATJAyccjxqubIWAND7upcBnq4jhpEgYeA4SQ4A+kvZS+IywMNLkDBQSoi4jCAA9Jfy/n348FQdMWwECQPFoVoA0J/cyHh4CRIGRrnJkk9XAKA/lRhxlMNwEiQMDHtHAKC/lSCxl2T4CBIGQrnE7/S0myACQD+zl2Q4CRIGwsGDPlEBgEHgapnDR5DQ9+bnF1y/HAAGRPmA0Tmhw0WQ0PcOHnSHVwAYJM4lGS6ChL7m3BEAGDwlRlysZngIEvqalRUADKZy2JZzSYaDIKFvzc3N2TsCAAPKFbeGhyChb9k7AgCDrQRJufExg02Q0Jfm5ubTzMxsHQEAg8peksEnSOhLLgcIAMNhamraFbcGnCCh75QT3Nx3BACGg/uSDD5BQt9xbXIAGC6CZLAJEvpKCZGpKSslABgm5cT2cugWg0mQ0FfKymhx0d4RABg2Tm4fXIKEvuF65AAwvObnXWFzUAkS+sbMzIxrkQPAEPPB5GASJPQNKyEAGG6zs7PNvcgYLIKEvjA3N2cFBAC44tYAEiT0BXtHAICiXG2z3JOMwSFI6HnlJLbp6Zk6AgCGnQ8qB4sgoefZNQsAHK3sJXGT5MEhSOhpZWUzPe1GSADALco9yRw9MTgECT2tXG/cjRABgNty5/bBIUjoaY4RBQBuT7kEcDnPlP4nSOhZ8/MLzeV+AQBuj70kg0GQ0LPKCWsAAHekBImT2/ufIKFn+dQDALgz5X4k5XxT+psgoSeVK2e46REAcFcOH3a+ab8TJPQke0cAgOWYnZ1LCwsLdUQ/EiT0nIWFsvvVtcUBgOXxQWZ/EyT0HCezAwArcfiwbYd+JkjoKeVKGVYqAMBKlPNO3bm9fwkSeko5DtTJ7ADASjlsq38JEnqKw7UAgNUod273oWZ/EiT0jHK4lmuJAwCrUbYjHLbVnwQJPaPEiLutAgCr5bCt/iRI6BnT01YiAMDqzc05F7UfCRJ6gsO1AIC14LCt/iNI6AkO1wIA1oIjLvqPIKEnWHkAAGuh3EJgYWGhjugHgoRwrooBAKwl2xX9RZAQzrkjAMBaEiT9RZAQzs0QAYC1VK625bCt/iFICFUuzVeO9QQAWEv2kvQPQUIoV9cCANaDIOkfgoRQrq4FAKwHh231D0FCGDdDBADWk70k/UGQEEaMAADraWZGkPQDQUKY2VlBAgCsn7m5eeeq9gFBQhifWgAA68nh4f1BkBBifn4hLSws1hEAwPpwREbvEySEsHcEANgI9pD0PkFCCJ9WAAAboVz61+V/e5sgYcM5nhMA2Egu/9vbBAkbbnZ2rs4BAKw/h4r3NkHChrNSAAA2ksv/9jZBwoZzuBYAsJFKjDh/tXcJEjbU/Py8E8sAgA03PS1IepUgYUM5fwQAiGAPSe8SJGwo548AABHKERrlSA16jyBhQ5WTygAAIszNOVKjFwkSNkz5VGJxcbGOAAA21uysD0Z7kSBhwzh/BACI5DyS3iRI2DB2kwIAkcp5JI7W6D2ChA3jUwkAIJojNnqPIGFDLCwsNg8AgEiO2Og9goQN4YcfAOgFtkl6jyBhQ/jhBwB6gUO2eo8gYUM4fwQA6BU+KO0tgoR11+l08g++634DAL3BB6W9RZCw7sQIANBL3CCxtwgS1p1PIQCAXuKQrd4iSFh3fugBgF5Sbo44P28vSa8QJKw7h2wBAL3G9knvECSsq/IJRHkAAPQSe0h6hyBhXfn0AQDoRbZReocgYV359AEA6EULC7ZReoUgYV3Nzy/UOQCA3rGwsNjcK414goR15QpbAECvsp3SGwQJ66Z86rCwYA8JANCbHMnRGwQJ68auUACgl9lD0hsECevGCe0AQC+zrdIbBAnrxqcOAEAvK4dsOZojniBh3TguEwDoZc537Q2ChHVjNygA0Ot8gBpPkLAufOIAAPQDH6DGEySsi7k5P9wAQO+zzRJPkLAu7B0BAPqBPSTxBAnrQpAAAP1gcXGxzhFFkLAuBAkA0A/Kea+iJJYgYV2Uu7QDAPQDV9qKJUhYF47HBAD6hSM7YgkS1pxdnwBAP7HdEkuQsOb8UAMA/cQekliChDXnhxoA6CfOIYklSFhzfqgBgH6ysODc10iChDXnkC0AoJ+4OmgsQcKac8gWANBvbL/EESSsOYdsAQD9xl6SOIKENecTBgCg3ziPJI4gYU25BwkA0I/sIYkjSFhTYgQA6Ee2YeIIEtbU4mKnzgEA9A9BEkeQsKb8MAMA/cg2TBxBwprqdPwwAwD9x1EecQQJa8oJYQBAP7KHJI4gYU2Vq2wBAPQbQRJHkLCm7CEBAPqVD1ZjCBLWlHNIAIB+ZS9JDEHCmnJCGADQrwRJDEHCmvKDDAD0Kx+sxhAkrClBAgD0K9sxMQQJa8rJYABAv3IubAxBwpopMSJIAIB+5WqhMQQJa8ZuTgCgn/lgNYYgYc34IQYA+pltmRiChDXjhxgA6Ge2ZWIIEgAAyARJDEHCmnHtbgCgn+mRGIIEAAAye0hiCBLWjB9iAABWSpCwhgQJANC/fLgaQ5Cwhlp1CgDQjwRJBEHCmul03BgRAOhf9pDEECQAAJDpkRiChDXjsr8AAKyUIAEAgMwhWzEECWvGDzEAACslSAAAIPPhagxBwprxQwwA9DvbMxtPkAAAQNVqua/aRhMkAABAGEECAACEESQAAEAYQQIAAIQRJAAAQBhBAgAAhBEkAABAGEECAACEESQAAEAYQQIAAIQRJAAAQBhBAgAAhBEkAABAGEECAACEESQAAEAYQQIAAIQRJAAAQBhBAgAAhBEkAABAGEECAACEESQAAEAYQQIAAIQRJAAAQBhBAgAAhBEkAABAGEECAACEESQAAEAYQQIAAIQRJAAAQBhBAgAAhBEkAABAGEECAACEESQAAEAYQQIAAIQRJAAAQBhBAgAAhBEkAABAGEECAACEESQAAEAYQQIAAIQRJAAAQBhBAgAAhBEkAABAGEECAACEESQAAEAYQQIAAIQRJAAAQBhBAgAAhBEkAABAGEECAACEESQAAEAYQQIAAIQRJAAAQBhBAgAAhBEkAABAGEECAACEESQAAEAYQQIAAIQRJAAAQBhBAgAAhBEkAABAGEECAACEESQAAEAYQQIAAIQRJAAAQBhBAgAAhBEkAABAGEECAACEESQAAEAYQQIAAIQRJAAAQBhBAgAAhBEkAABAGEECAACEESQAAEAYQQIAAIQRJAAAQBhBAgAAhBEkAABAGEECAACEESQAAEAYQQIAAIQRJAAAQBhBAgAAhBEkAABAGEECAACEESQAAEAYQQIAAIQRJAAAQBhBAgAAhBEkAABAGEECAACEESQAAEAYQQIAAIQRJAAAQBhBAgAAhBEkAABAGEECAACEESQAAEAYQQIAAIQRJAAAQBhBAgAAhBEkAABAGEECAACEESQAAEAYQQIAAIQRJAAAQBhBAgAAhBEkAABAGEECAACEESQAAEAYQQIAAIQRJAAAQBhBAgAAhBEkAABAGEECAACEESQAAEAYQQIAAIQRJAAAQBhBAgAAhBEkAABAGEECAACEESQAAEAYQQIAAIQRJAAAQBhBAgAAhBEkAABAGEECAACEESQAAEAYQQIAAIQRJAAAQBhBAgAAhBEkAABAGEECAACEESQAAEAYQQIAAIQRJAAAQBhBAgAAhBEkAABAGEECAACEESQAAEAYQQIAAIQRJAAAQBhBAgAAhBEkAABAGEECAACEESQAAEAYQQIAAIQRJAAAQBhBAgAAhBEkAABAGEECAACEESQAAEAYQQIAAIQRJAAAQBhBAgAAhBEkAABAGEECAACEESQAAEAYQQIAAIQRJAAAQBhBAgAAhBEkAABAGEECAACEESQAAEAYQQIAAIQRJAAAQBhBAgAAhBEkAABAGEECAACEESQAAEAYQQIAAIQRJAAAQBhBAgAAhBEkAABAGEECAACEESQAAEAYQQIAAIQRJAAAQBhBAgAAhBEkAABAGEECAACEESQAAEAYQQIAAIQRJAAAQBhBAgAAhBEkAABAGEECAACEESQAAEAYQQIAAIQRJAAAQBhBAgAAhBEkAABAGEECAACEESQAAEAYQQIAAIQRJAAAQBhBAgAAhBEkAABAGEECAACEESQAAEAYQQIAAIQRJAAAQBhBAgAAhBEkAABAGEECAACEESQAAEAYQQIAAIQRJAAAQBhBAgAAhBEkAABAGEECAACEESQAAEAYQQIAAIQRJAAAQBhBAgAAhBEkAABAGEECAACEESQAAEAYQQIAAIQRJAAAQBhBAgAAhBEkAABAGEECAACEESQAAEAYQQIAAIQRJAAAQBhBAgAAhBEkAABAGEECAACEESQAAEAYQQIAAIQRJAAAQBhBAgAAhBEkAABAGEECAACEESQAAEAYQQIAAIQRJAAAQBhBAgAAhBEkAABAGEECAACEESQAAEAYQQIAAIQRJAAAQBhBAgAAhBEkAABAGEECAACEESQAAEAYQQIAAIQRJAAAQBhBAgAAhBEkAABAGEECAACEESQAAEAYQQIAAIQRJAAAQBhBAgAAhBEkAABAGEECAACEESQAAEAYQQIAAIQRJAAAQBhBAgAAhBEkAABAGEECAACEESQAAEAYQQIAAIQRJAAAQBhBAgAAhBEkAABAGEECAACEESQAAEAYQQIAAIQRJAAAQBhBAgAAhBEkAABAGEECAACEESQAAEAYQQIAAIQRJAAAQBhBAgAAhBEkAABAGEECAACEESQAAEAYQQIAAIQRJAAAQBhBAgAAhBEkAABAGEECAACEESQAAEAYQQIAAIQRJAAAQBhBAgAAhBEkAABAGEECAACEESQAAEAYQQIAAIQRJAAAQBhBAgAAhBEkAABAGEECAACEESQAAEAYQQIAAIQRJAAAQBhBAgAAhBEkAABAGEECAACEESQAAEAYQQIAAIQRJAAAQBhBAgAAhBEkAABAGEECAACEESQAAEAYQQIAAIQRJAAAQJhWJ6vzcEwOHDiYDh06XEcwROZmUpqfbaad+bn8yPMLc82yzvx86izk5xcW8mM+pcU8LY9mfrGZ7yzm+bIqLtPFMs3Pd+pzzTQ/yrS8pnmU/y+UFXgzbl5THHm+PpaWlS/oftEty5tBmdTlS+Oqu6j8esvyVvnlyDDPlOfLwjLbXXiUsiQ/ufSa4ptflC0tXHrR0W73C6qjv+ntfG1ZdORb38Vrs+7So77oyNcUS8vzNP+/+c9y9NOpnV9+m4VHf30zX8fN7NJzebo032rfMt+unxXmZa38v06Z5qc6ZVRmll7bHum+prx+adzMd6etMh4p8+Ux2n2uTEfKfHluLA/HUxrN49GJZnl7LE9Hx1Jqpvmx9M8CQ+Tud79bnWOjCBLWjCBhQ8xO5cd06uRpp4TAXJ4vITA7k1olABZyDDRRkIOgiYIcBGVDPwdAK2+4d0oIlGkTA2VDvk6bjf6yOizzeVrm64Z+s8Gfh3nTMM/XVWYzrfMwsEoA1enSrzlSyt/8Jo7KgRZlshRJtwqmpWUjNY5K3ORHjaRWCaMcRSWSWmN5WuabQBrL402pVebHcxSNTab2+KY8Xx6bu98X1pEg2XiChDUjSIbYTP5znz6QFqfzNM8vzuZpjoY0W+Kg7DXo7j0oUdAEQ7OHoOwZKHsLSgDcskeg2dAvQdBs/C82ewG6q6n8sLoCaiSVICp7j8qgVabto2KoGddHKwdPE0ElfGoE5Uer7AEay9GT46fETntiMk/zI0/bE1tSmtzafA3DR5BsPEHCmhEkPa5s+E8fTIuH9zfTTg6IzvRUDoWp1Cnx0ETD0h6GulehBMJ8iYSlcFhs4qCV6h4GkQAMtKZ8muDpNLMlbJaCp8y3mz09nRI7edoqgVOCJ09b5bC3scnU2rQltSY2p7RpW2pv3pbS5u35NUKnlwmSjSdIWDOCZB00EXEgR8S+lA7tT4tTB1Mqex9mDncjYq48SkTMNY9bx0P3/IPmMKXyY+5HHaBHdEOnCZqlvTrNHp2yB6cczlYOXyvzE93IGd/URE3z2LS1iZr2ZA6bLTvEzToQJBtPkLBmBMntKOcyHLwpP/akxYM5KmYOpU45vKkERXPuQznPYbZ7rkM56bkewtRpoqJERNkLAQB3pHuxg045L2fpMLV2N2iasBnrnpNTDkdrTZQ9NjloNm1LrW07Uzs/Utl7w60Iko0nSFgzAx0kh/elxX03ps6hPalzeH/qTB04ai/FLYc5da+StHRoU9lb4ccLgF6Wg6Zdzscpe2aW9tIsxUw99Gx8c2pNlvNqdqT21uNSe/sJKW3NMVPiZwAJko0nSFgzfRMkTVx8I3UO3JwDY28TGLfssShhMdeERTlHolVOvG72UvgxAYBbqefSNHtmyoUDmkPNcsSUQ8zKHpnJbSlt2d7siWlvzxv523blr2nVL+5dgmTjCRLWTFiQzM+mxT1fT50SGQdzZOTg6EwfqpeGrfeHaA6FKld1EhcAEKZETNkD00RMdy9MuxxSVk7+Lyf8b9mR4+XE1D7+7imVoAkgSDaeIGHNrHmQHLg5Ldz8tRoae5qrQqWZekWo5vKxZU9GDgznWQDA4Cl7U5pDyerel7GJ7t6Xzdvy47iUtu1MIzlcWjtP7obOGhEkG0+QsGaWHSTzc2nxxmvS4p7rUudAOS9jX0rTh2polBO8F3JsLOQX+qsJG+eowyiOzJaZ8nN4y3NHvSoPbjU6SrmFZDPpuvW3WIZW/Q71i8pkaXVQfs/ytnX0965PlgtS3/LCZSovP+p7Lc1+0/c56q3yjn+H/MytnrzjVwJrq7kkcwmX0RIu5apkk80el9a2Xal93N1S+4RTlr3HRZBsPEHCmjkSJPtuSAvfuDp19lyfY+Pm5gTwzkyOjXLoVNmzYY8GPaNuftYN6+bXPN85Ms7TIxvdZb47OWomT+ryRplfGtTlzXhpWdbMdq+Ks6S7IV1eurQsT4+avc3glmGeab6mrMXLpFl+5Mk6l389sqjO3HbMBrnN223z9lv+DPK0+f+tn89v0HUuy/Pd0dHL6rSZyY+lcTPtDo78mr/+6D/t7lt/Wd6M6rQ4alkzWXqiTPOjrL6bf+Q6rpP6S7N86Z+0+edvxtXS10CUpXNeSrSMT6RWudrYlh2ptSMHy6575Wi5V3OiviDZeIKElTtwY5q//GNp8eovpMUbrmxOEE+H9qUDkyekqc276psO3J68JZM3oJvtmeba+2VYd7OXDevyROoub8b19d3p0cvKbPfrOvn1zeKysFl0y2vKL0sb+SUyuovKc2WuuxyIkN8nmmAp/y/vGTmYusP8S/3Qailgll5X31vK3rNmvo67z5f5o6bN/NJsObQ3T+uC8rUllo5s/viQjCPy+8RIO51ww+ebG1qmbSekkbudktr3fEAavf/DUuvu96uvY60JEm7fob1p/gv/kha+8pkcHVelzr4bmhPFmz0dC/P1Rbd26LhT0tT2k+uI/tHdaC+B0Gy83/ZRNtyPzOct/uYuxWXYzm/t3eXdr+t+r2Zcp00ENM+VJ5sXAPSmsjlUQqWs2Y4ES3dZM128zXNHP45+XbMsR07TOeW15Qa1R31NeQ097YSrP1H/rG6jvKeVyyBPbu1e/vjEU9LIKd+SRs58hFg5RoJk2F1/RZr93D+lxSs/lxZvujZ1Du7tnjheDq9aIUGy3rob9532UXf2LY/mOvB1vnl0n7u9yGjloOjkoCj/a8KiTAHYYHnTq9z8NldLt1HKXpzunpxbAqY77i4vTxw1bb62Rk5zcZfumLVxh0FyZ8qhYOWE+y3bUuu4k9LIPc9Mo2edn9r3f3j3PZg7JUiGxex0mv/0+9PCFz+aFq6/MnX235zS9OHularWiCC5A0eioIRC3cPQxECZ78bDLRFRn2++JsdDs6w+DwB3qMRJ2aTLkVOmNV7KZl6rTJcue790dcryfI2ZJn6EzRGrCpI7Ut7PJ0qoHJdau+6RRnafk8Yf+n35N7lnfQGFIBlE87Np/uN/nRYu/0iOjyu6NwDM8bHeBjpImlCoeyZKRDTRMNJdXqKhWVbmu+Mjry0PAOgbOVBKnCyFS542m4rlfl5LQXOr544aD4g1DZI70BobS2nzcamdw2T0tLPT2MN/MKVdwxspgmQQ3HBVmv3YX6X5//xU6pT7dkwd7K4cNljfBEmNim5c5Kho9liU6dLy7vyR+BAVAHAXSqzkRw6TbtDkgGnmy42Ja7QshUtzxc2y+dmbm6AbESS3a3yiuUTxyClnpbFzH5vap59fnxh8gqQfzU6luQ/9SZr/3MVpsVxet9yVvAfEBkmOipGRbkyM1j0X5XjOJjKWYqOOnTcBAPFyrDTx0in3H8ubo4vzzbLmsbAUM/mxweESFiS30RodbS5JPHK/h6bxRz8htU46rT4zeARJvzhwU5r5/34/zV/+keYQrIg9IHdl3YKkOQSqxMRojo4SFvkHtLlra11WgqO8BgAYPHmbp1NjpblxcnmUcXMj5Txd48PFeiVIbqu1aXNqn3JWmvjup6b2/c6tSweDIOlxs3//xjT30fekzr4be/KH42jHFCStdo6MHBejJTpKZIwdFR15CgBwe8qhYU2ozHcDpVywZ77OryJWejVIjlbiZOT+56ZNP/o/U9p+Yl3avwRJL1pcTNNvf2FauOwjqTMzVRf2vmUFyZHwyMExNt7ER2tkLAdIOZQKAGDtNId9zc3lOJnNkZJDZW62u+xO9EOQHNFqpfbJ902bfvyFqX3vs+rC/iNIesz8h9+VZv7m93vmvJCVuL0gafZujE90byQ0Op5aOUQAAKKUIOnMzuQ4yY/Z6W8KlL4KkiXtdho945Fp05NfmVLZ5uozgqSHzP75r6fZj7y7/34IqqUgaSJkcktqjU8KEACgp5WbQXemDqXOzOFmG6wvg6Rq7TghbXnen6a0aWtd0h8ESY9YuOzDaeqNF9ZRH2m10s33OCe156fTyOJsmjvxtNTKMZKf6D4PANAHmj0nB25Om7/+H+nwjnukNDKWtl93aRqbW/97ua2l9qkPTJt/8c111B8cuN8j5j7wR3Wuz+Se3fH1S9PIfI6RHSfnGClFLkYAgP5SjvBobduZDh9/7zJIm/d8te9ipFi8+ot1rn8Ikl7Rx1eSGlmYTdtu+s+048qPpy17rsnjmfoMAECf6HRS+8avps17r07HX/uZNHng6/WJPlNukdBnBEmv2LojtTZtqoP+NDI/k8a/8vG047IPpp1f/1zaNnV9mpg7kNqd+foKAIBespjGpvelyWs+m7Z/7m/TcVd/ugmRdufOr8TVs8ZG0tjp59VB/3AOSY+Yedvz0/zlH272lHQOT+clA/DH0m6n1sRkam89Li1sPzHNj29JcyMTaX50Ms2PjOcXOLQLANg47cX5ND5/KLX235RG9309jR34RvceJv2ubFKNjaVWu5VGH/aDaeKHn9td3icESY84EiRZOYZxcX4xpXJJukHSGkmt8YmUcqSMbN6e5rbuSgtjOVBypCzkQJlrj6dOufM6AMAxKoeQj85PpZFD+9LIwRvT6KE9KZXbKtzFfUj6Sg6R5kbSY3n7qW7SCxJW7eggOaKcV5K7pDMzfeQv2cBZulHi+HhqjW1Orc1b0/yWHTlUNqf59lhaHBnL0/EcLOXywY4wBABu0eosNIeMj8weSu2pA2lkal9qlwCZPdi9EeLAbj+18nZT3n4q54vc5t9RkLBqtxskRyv385ibz3EyJCeM5x+05lHu5D463uyG7ExsSZ3NO9Lipu1pPgfKQgmW/Fhojzbhkr+g+7UAwIBYTO25HBxzUzkyDqdUomPmYGpPH2qmrYUBjo7bKptGZXtwtOwNueO9PIKEVbvLIFlStrnLYU2LndSZm831P0C7HVeq3c7/PUa6uyrzD2dnfDItTmzNwZLDpUzzeKEc/tYq4TKSFlr5v1vLXhYAiNfpxkTelhmdn07tHBut/GjPTKXWXJ7OTnUf5TVDrFX2gJQAKUfNLPNEe0HCqi07SG6rHPKUN8qbm/mUXZML5Rgvf6S3qHtaSryUx2iOk7HNOVYmUhrfnObHJnPIbEppYkuzt6WEy2IOlzJtvhYAWIZO3hZZTK3F+dTO2yOtuRIUM82Nk1tz3Ud7fiZHR54ulOWzeSM0b7NwK+U84jTa/bC10xy3v/JtOkHCqq06SG5POXwprxTSwnzqzOWa9gO/PEv9USIvtdNiXhksjoynztim1BmdyBFTpmVcHpO3PJf/ey/mr3FCPgD9rxsWZTuinJ/RmssRUfZSlLhYzPM5JNpzOSZyXDRRsVDm5/Jz+ZFfJzJWoN3qHuVRHuVD0/Lfbg02ywUJq7amQXJb5TCl8pe9HOY1P59SeZSVDWsmr1JSJwdNp+ytGh3LcVL2xIzntcJ4WmznmBkZbWImlZjJIVPOeWnl+eZk/eY1ZY9M/nMCgNXKG7Rls66V3+ObzbtyNakcCiP5fX8xx8NIni8nepfAKCHRXphvAqPs1Wjl+XaJixIhZb4sExdrpxx6ld/rmwDJIbJW8XF7BAmrtq5BcnvK3oDmE/08s1BWWt1Qaf46+CsRohs0JVxyzKT8Z1OOGc3jhXIVshwunbwSK6FTTvRfLCe1tUvYlJP+89c0z3VDp4nP5nyZ+o0B6D1H3m9zPCyW+byB2oREOewph0SOhvZCNw5aOSTKsk4TDws5LMoHi92IKNPmdZ3yujLNjzItX1fmu78bG6Fc+WrpMPHyXlwezZ9xOVql+5KNIEhYtQ0PkjtTPq0ve1WaFWRZAeaVZLlpkE9K+kdeIZbDyMqf5WIqn8Z0V4wleMqJ/s04B2lnJK84S+yUEMrLOiV+yuFnTQDlr68XBCgRVJ5vvl9+tOsFBZrzcwAGTX6/K5tHrbIV2XyQXfY0dJpj+pu9BuVwphIIzZ6EbgSU98nmuSYgahw04bCQX1O+pr6ufG0TD91p+b268/l1zfcWET2vhEfd49HER3m/bZW/K/nPtwcIElatp4LkzpRP5Msqun6a05kvK9y8Ui4rW4ZHXhl38gp4sRxmllfGzaFqZRd0jp/y6dBiWVZW1Pn5Zu9NEy/5teXTovxciaTy9Usr8+a1JYSa75X/juXv1Y2k/Lcth1Pz/fLzrTwtryux1S5fX4JoaQoMgPLeUib5/SX/r9W815QMKBvqedw83Y2BZsO+zDcXcynjGgRLG/j5UUKiCYPy9fV1JSDK92y+x9Lry/cp32Oh/B7d+SZGyvNNLJS1XR4v/R4MtvLWUn6p71nN4VbN+0x+lL8nPb7pLEhYtb4JkjuTf2jLyeCd8kNbVth5xd4pe1bKrsrmjaD7MlgTOUTKX6kmbPLfuTItn2c2gVOeLuPyXF7WhE7+u9n81czxU17X/D3Nz5fIab42j8vf36Xv1XyfTne+NZKnzd/tsjx/XXld+b3KHqYSV2VYI6v5PfJz5dOz5p+n+d71+5blzdfnR/PP1P3nKNOROi7/b5SIa/5FukP4Zksr1TxttpHzOre8pTdv691pfpOv82WjO2/K54368hPQfbqsl7sb4528jm7+ZjYb293l3b3k3a/rzne/f3ejv/nbm+fLXoI8bZWN9vK6PM7/azfz+dFs6Jcw6G7Qlw+zmjgo37c8Xebz/5sYqOPu79eddn+PPK6/Z/efB45RWVGXD7zKuny0fCBWxmUbZulnKP9962OChFUbiCC5K+UHvvmkvBl0IyW/+TSHhB35pKo8B8OtbIY1Py9FCZbyc9H8/HSXNT8mJXIa+fmyvCwse5ZyRLXKll75uvxc+YojoVR/vpoIq9+zTLvfqn7vUldLX1+/V/N9mu/XbGo2r2y+c31d/g3y/+s3b3RfcUTzvbrPl1+7UVZ+r/qaMjnyD5cHS7P1dc1zZXF5fX6+u0Hbfar53mXDt760+xt0Z498n/LPtvT715d2/8uUmVuea76g+T3KOL+iWZ434vOkOS68rK8Wy1fm/yL5Nd3v1Z22l/798/PN67qj5vnyPZrX1u/X/Cvmf4Xu91h6ZZ6W1zSzeeO9/HvlaXm+WVZ+zePu91t6Xffrl5YVzfyR7wlDaqSs8/K6LK/ryp74Mrv0k9QPeziOlSBh1YYiSJajvFOXNUfz5l/egPNfz7w1UO6z0mwVNOGSnyrv5gDAUGg+Cih7NZrDp2psNNP8ZPnwpHwQULYNbNb2ZZCUP0boHU2A5OgoVw4p1z0vJwSmhW6jjOYVzvhoak3kx6bx1No8mVpbNncfm7d0x5s2pVRuejhWrkxVd8M2cQMA9JTy/pzfq1tj+TGe39cnJlJrclN+P6/v7c37ex5vyu/rm8aabYDu5XPLF5f4KNsK5cIBc90PLsVI3xIk9K8j4dJdGTXjvIJqtTvNJyjNCm4ir8DKYzKv5LZ0A6a9pcRLfmzKK7qJpYCpl8ttdu92vz0AsAJLgTE62g2MHBKtycnUnixhUd5/S2Tk9+ISHeWDxfL+nN+ru++/5etzUJS9HOXDyCPv7+WICKEx6Gx6MRzKpyblBPu8cus0e17yI+UVXTkRswmYVv2EZmklmh9HPqXZckvENHth8qN8ipNfl5oVaf4xyhM/TQAMhHJoVDn3YrT7vlg+uCtHIDRxUd4X63tj857YvC+W548KjNH8hti8J5bAWMhvwSUsyvtviYyyJ8Nh19yaTSi4I0c+pZm7JWKavTD5UT7FyT895Y6rrbEcMWN5RXwkZPKKOa+gu58ElRV3Dpqyws4r8ltipu6VKVf3KJ8MlWPSAOBYlaOUWyUoShTk95f6HpWa96gaFeX9qIZF817VvEeV5+r72Hh+fxovYZEf+fuUD+7yG2A3Lpp7q3TfG5v3xOZ90R4Mjo2T2nuEk9o5ojlhpjzKfH5TKR8w5Ue5ek7z41p/ZJsrCy0upj2LY2k2jaTR/EYxlmNpIs2n8RxTR195B4Aet3S6Y3N1uXKVqO5avHu1qLysHA7VvC/UD7Ca1+f3iKX3hvLq8r5g3T/0XGWLVRMkrLW5TqsJlbn8xjbfaedpKy3kafNZVn5usVzetMzn/zXvcXlV0NzqMK8Rmvu7txbTWA6eMh3PXzWeg6fcRwBg6JUPi/KkrD1LHzTT/L9yz6PupbK7QdFERHl5DormNXm4tM7tbn3lX1wZijUmSFg1QUI/KPtdZjslclo5eErc5Ngpy/N8ea7ETrn8YvMhXXOPhTwp/6vHC9d7tOdpme8G0Ej+qrH8whJBJXxGHVsMHIumAcovZe3TrJLybN2rcCQYShzkZc1z+Zfyoma+O272OpRBXZeVD2yajSXxQB8QJKyaIIHbaDYW6hZC8/+8iVCGJXLy48h8Dpn6eWMppu60TsrqrWxYNMNSSc3dpPOSZr58n7qR0by4fI/yDfLUahFWp/m5aqdOc85B+TAi/zg1hyA1T+Qf6fzz1/x45efKXoNm478Mm1+70/J8fq4sqS9tfj6Xnmp+ab5xM8rqvJ9baAgSVk2QQA9a2khqNqbKo87nRwmdJoTKMK9Gm82nsk1UXlLdEktZs8HULOxOb7Xqzd+rGS69Og8Wu7/DkjIqmmVNN+VpfbrZUCvL2vmXcqfwI1tueXzk9yvLy0x5rn4hMZq/V+XPoHxan+fKZU3LB/h5Q77+Bbjlj6r8UpaVR90oL7p/gnWQHbn7ffeF+XVlmh/dYZ52n28cmV3ayK8L6mu7y5aUZ+vfxWbh0jNHj5fmgV4gSFg1QQLEOWpL9Ig83wy7y+orunNNDHWX3/JEXd645dVlvompMsyLl5Z2X3NH6quWfo/i9l5+5Lc4MlOnt+fo37m8rjte2oC/laV4axaXX44edx35qvIWeqtvcdSLvL0CAfoxSOpBlQAMr7rhXDagjzzK3pby6F7Ws7kLcvOo9xE4cunPOi2XxV66kVm5HOhR8+XeA+VSod17EBz9mjt61Nc0l9quj9t73ZHnVvA986Ncxrv5ZzryNbc81zyWvmfz73X0v/MtjyP/PZb+OzXnFpTHUf8NAVgWQQIAAIQRJAAAQBhBAgAAhBEkAABAGEECAACEESQAAEAYQQIAAIQRJAAAQBhBAgAAhBEkAABAGEECAACEESQAAEAYQQIAAIQRJAAAQBhBAgAAhBEkAABAGEECAACEESQAAEAYQQIAAIQRJAAAQBhBAgAAhBEkAABAGEECAACEESQAAEAYQQIAAIQRJAAAQBhBAgAAhBEkAABAGEECAACEESQAAEAYQQIAAIQRJAAAQBhBAgAAhBEkAABAGEECAACEESQAAEAYQQIAAIQRJAAAQBhBAgAAhBEkAABAGEECAACEESQAAEAYQQIAAIQRJAAAQBhBAgAAhBEkAABAGEECAACEESQAAEAYQQIAAIQRJAAAQBhBAgAAhBEkAABAGEECAACEESQAAEAYQQIAAIQRJAAAQBhBAgAAhBEkAABAGEECAACEESQAAEAYQQIAAIQRJAAAQBhBAgAAhBEkAABAGEECAACEESQAAEAYQQIAAIQRJAAAQBhBAgAAhBEkAABAGEECAACEESQAAEAYQQIAAIQRJAAAQBhBAgAAhBEkPaIzfbDOAQDAKk3trzP9Q5D0iPbWXXUOAABW6W6760z/ECQ9YvwJL02tiU11BAAAK9PetjNN/D8/U0f9Q5D0kM0v+YfU2nG3OgIAgOVp3+3UNPm/3lNH/aXVyeo8PWL+o3+RZv7291Kam61LAADgm5UjbMZ/6H+m0Qd/d13SfwRJD1v42HvTzD+8PnUOH6hLAACge3jW+H+7MI18y3fUJf1LkPSD6UNp+h0vSgtXfTaluZm6EACAYVL2hrQf8Mi06cdfmNLIRF3a/wRJvzm0P02/9zfSwpc/mdLUwZQ6i/UJAAAGSavVTq0tO9LI6Y9M4z904UBFyNEESZ+bv+xf0sK/vCMtXPeV1JmdyoHijxMAoB+1Wq2UNm1N7ZNPT5se81Mp7X5IfWawCZJBc+3n0/QH/2/qXPOF1Dm0P/fJvEgBAOhFI2Opte24NHrKg9L4Y56S0t1OrU8MF0EyBOY/9Xf58f7UufGKtJgjJS3O5UipTwIAsL7Kno/R8dTasj21737/NHbeDzWHYdElSIbVdf+RZj/+3rRw1efS4t5vpDR7OP9lWEz+OgAArFLujlZrLLU2bU7p+LunkdMenMZzfKSdp9QXcHsECbd23ZfT7Cf/Js1/9dLU2nd9Wpw6mFoLc0IFAGBJq53SaA6Pya1p5Ph7ptbus9P4I/57Stvd4Ho1BAnLVk6gX/zCv6aFr38ppf03pcXpw3nhXH5m0XkqAMDgaOVHeyR3x1hKk9tydNwtte5xRhr/lkcNzYnmG0mQsDZuvjrNf+7iNH/V51Lnpq+ldGhPWpybysGykH+mHQoGAPSSXBzt7l6O9sTmlDYfn0ZOvE9qn/agNPqt353Slu31dWwEQcLGOLQ/zV/2z2nxihwsN341Ley/OaXZA6kzN5taC/OpU86y9zcRAFgL5ZCqkdGUxjelkcltqbXjxNQ6aXca2X1OGjnj23OI5OfoGYKE3jFzKC186eNp4crPpMUbrkmd/denNJWjZabsaSmXL87h4q8rAAyncqWq5jGSWmNjOTYmU2vyuNQ6/qTUvvv90vhp56R0v3Pri+kngoT+k8Nl/iufSgtXfyF1vnF1Wtx3Q0qH9qbWzOFmj0taKJc1Xmhe6q83APSyEhjtlNqt1CqXxR3f1FyhqrV5Z2odd/ccGrvT6O4HpXTv/GBgCRIG31c/mwPmkuZQscW9X0+LB/emzvSh1JmdzvFSDhkr8bKYOouL3dcDAKtT9mDU8zNa5aZ/YxOpM5YjY3J7am3fmdo7T07tk++XRktgDOlNAPlmggRua/8Naf6KS9LC9V9JrRu/ljoHb0iLhw+kztShHDAz3SuL5YjpdMrVxUrE5B8hP0UADJKy4yL/r1PPxWjVR2dsMrUmtqTWtl2pvePE5kTwkXveP6VTvzW/bqJ+MayMIIG1Uq40dvXlaeEbV6f23uvSwt4bc8R098a05mdSp3nMp9ZiuerYQjmerPt1fgQBWGvNnopmpjtfgqLdTp2y12J0ojk0qj25LXW27cxhcVJq77xnGr377pTudWZKOThgIwkS6AXlpP3rv5gWvn5FWrjputTaf0NaaO71ciC1Zw6mxZnZHDKzqTM3lzqLNWrSYp520kL+ES5vOy27aQD6XlmjN+vzeuhTExHN/TBKVOSYGBlPnbGjgmLzcTkodqX29pNT66T7pJGT7+vmfPQdQQJ97v/+ybvSRz768WZ+NEfK8e3ZtDXNpm2tubSlPZ82p/k0UR7txTSWnx8vj9ZCMz/aysvyKmC0vZBG83SklefzG2E7Lx/J4/L+V+4j026+OwC3tVjWkp1Wms8BsdBp57Vtns/T2bzmnM+PmTo/0xlJM3kN2x3n+cXRdLA1kg4ujqf9nbF0IE8P5+eLJz3hx9MjzntYMw/DQJBAnzs6SNbTWI6UEjPNtJMDpo6bqMnTTTlyJlJ95PgZL9PmuYUmgMprR/JjvIme7teU8WiNoFaelmVte3qANVTWKCUMymMuh8NcEw0jTSSU+Zk8nc1x0ERDfkw30TCS5nJYzJZpDYq5/DXT5bWd7vMz5Xvk59ZjjSVIGDaCBPrcRgXJRnjkIx6enviTj0upXPFs5nB+HEyLs1MpTR/Mj6nUmcuPMm4u8TzTzJfzcxZnZlIrj9P8bFqcn87LZlOay/N5WWuhzM+lxc58d3k53K1cmKCs+hbm8+9azulZLCvDZlmzSmxWi/VRJsCxKSdGF+XQo+ZIpJHUGWnnTf5yudfR5iZ1rfZYno40d84u852R8eZeE+V8h05elsYmUntsPE83NYcrdZrzICabqzilcqJ1uVRsnv7tRz6V/vXTlzUBUYKh7MHoN4KEYSNIoM8NZJD0kiZuppsIWiyXip4t4ZOjqAmect+b/CjLyv1vcuh0yri5Elt5Lo/LfDlHqImgufSla76RLs+PsldopNmDlKd5k6mZthebvUflM9e8WdY8386xNJq3p8qycvjc0nxZXjbnyp6lZpyn+f/d+ea1eb7ZDrtl3AzzfNGdpxeUP53yp1LejRfL1nqedvKkHAZUpuVPa6HM5+lifU1zfb+8bLF5ebt5vnsB8/Ka7rgcQjTXPFf/BuS/EOfee2dzPkIJg3YJgXIn6zzfaaZlnJeP5I3/HAxLcdBERBMLecN/vJzDsKm7fCKHQblvxGgeT+TnyrSc11ACYXxzfnRDYaP9+V++J/3zxf9aR/1JkDBsBAn0OUHSXz7wwYvTu9/zvjqKd0us1KjJ/1v6TLlZ1ryq+5ruOUV5WX7XKCF0yt3vlp76w9+bt4JLdJW9U90Ya3UWcnvN5w3mcgGGhbw8T8slshdzmC0s5O+xmCd583mhLC/fPr9+seylKlefK+Py+3fy4vw1zT9TeUlelufLRnhjpPtP1iqftDczeVw25sujPJfHzT99uaNzuR9CfpRlrdGSfPnfMk+7z5VLmXY/rc9b1M2GdjtvZJcN9E5+7itXX5fe9f5/br6m+Ufr/tPcatzsVFuaP/Kab15WHiUoyrh8fXlspM2bJ9OrXvmyOhpcggT6jyCBPidI+kuvBcmxOG33qenCZ19QR4Pp0s9fll7/hjfXUX8TJP1DkDBsykdCAAAAIQQJAAAQRpAAAABhBAkAABBGkAAAAGEECQAAEEaQAAAAYQQJAAAQRpAAAABhBAkAABBGkAAAAGEECQAAEEaQAAAAYQQJAAAQRpAAAABhBAkAABBGkAAAAGEECQAAEEaQAAAAYQQJAAAQRpAAAABhBAkAABBGkAAAAGEECQAAEEaQAAAAYQQJAAAQRpAAAABhBAkAABBGkAAAAGEECQAAEEaQAAAAYQQJAAAQRpAAAABhBAkAABBGkAAAAGEECQAAEEaQAAAAYQQJAAAQRpAAAABhBAkAABBGkAAAAGEECQAAEEaQAAAAYQQJAAAQRpAAAABhBAkAABBGkAAAAGEECQAAEEaQAAAAYQQJAAAQRpAAAABhBAkAABBGkAAAAGEECQAAEEaQAAAAYQQJAAAQRpAAAABhBAkAABBGkAAAAGEECQAAEEaQAAAAYQQJAAAQRpAAAABhBAkAABBGkAAAAGEECQAAEEaQAAAAYQQJAAAQRpAAAABhBAkAABBGkAAAAGEECQAAEEaQAAAAYQQJAAAQRpAAAABhBAkAABBGkAAAAGEECQAAEEaQAAAAYQQJAAAQRpAAAABhBAkAABBGkAAAAGEECQAAEEaQAAAAYQQJAAAQRpAAAABhBAkAABBGkAAAAGEECQAAEEaQAAAAYQQJAAAQRpAAAABhBAkAABBGkAAAAGEECQAAEEaQAAAAYQQJAAAQRpAAAABhBAkAABBGkAAAAGEECQAAEEaQAAAAYQQJAAAQRpAAAABhBAkAABBGkAAAAGEECQAAEEaQAAAAYQQJAAAQRpAAAABhBAkAABBGkAAAAGEECQAAEEaQAAAAYQQJAAAQRpAAAABhBAkAABBGkAAAAGEECQAAEEaQAAAAYQQJAAAQRpAAAABhBAkAABBGkAAAAGEECQAAEEaQAAAAYQQJAAAQRpAAAABhBAkAABBGkAAAAGEECQAAEEaQAAAAYQQJAAAQRpAAAABhBAkAABBGkAAAAGEECQAAEEaQAAAAYQQJAAAQRpAAAABhBAkAABBGkAAAAGEECQAAEEaQAAAAYQQJAAAQRpAAAABhBAkAABBGkAAAAGEECQAAEEaQAAAAYQQJAAAQRpAAAABhBAkAABBGkAAAAGEECQAAEEaQAAAAYQQJAAAQRpAAAABhBAkAABBGkAAAAGEECQAAEEaQAAAAYQQJAAAQRpAAAABhBAkAABBGkAAAAGEECQAAEEaQAAAAYQQJAAAQRpAAAABhBAkAABBGkAAAAGEECQAAEEaQAAAAYQQJAAAQRpAAAABhBAkAABBGkAAAAGEECQAAEEaQAAAAYQQJAAAQRpAAAABhBAkAABBGkAAAAGEECQAAEEaQAAAAYQQJAAAQRpAAAABhBAkAABBGkAAAAGEECQAAEEaQAAAAYQQJAAAQRpAAAABhBAkAABBGkAAAAGEECQAAEEaQAAAAYQQJAAAQRpAAAABhBAkAABBGkAAAAGEECQAAEEaQAAAAYQQJAAAQRpAAAABhBAkAABBGkAAAAGEECQAAEEaQAAAAYQQJAAAQRpAAAABhBAkAABBGkAAAAGEECQAAEEaQAAAAYQQJAAAQRpAAAABhBAkAABBGkAAAAGEECQAAEEaQAAAAYQQJAAAQRpAAAABhBAkAABBGkAAAAGEECQAAEEaQAAAAYQQJAAAQRpAAAABhBAkAABBGkAAAAGEECQAAEEaQAAAAYQQJAAAQRpAAAABhBAkAABBGkAAAAGEECQAAEEaQAAAAYQQJAAAQRpAAAABhBAkAABBGkAAAAGEECQAAEEaQAAAAYQQJAAAQRpAAAABhBAkAABBGkAAAAGEECQAAEEaQAAAAYQQJAAAQRpAAAABhBAkAABBGkAAAAGEECQAAEEaQAAAAYQQJAAAQRpAAAABhBAkAABBGkAAAAGEECQAAEEaQAAAAYQQJAAAQRpAAAABhBAkAABBGkAAAAGEECQAAEEaQAAAAYQQJAAAQRpAAAABhBAkAABBGkAAAAGEECQAAEEaQAAAAYQQJAAAQRpAAAABhBAkAABBGkAAAAGEECQAAEEaQAAAAYQQJAAAQRpAAAABhBAkAABBGkAAAAGEECQAAEEaQAAAAYQQJAAAQRpAAAABhBAkAABBGkAAAAGEECQAAEEaQAAAAYQQJAAAQRpAAAABhBAkAABBGkAAAAGEECQAAEEaQAAAAYQQJAAAQRpAAAABhBAkAABBGkAAAAGEECQAAEEaQAAAAYQQJAAAQRpAAAABhBAkAABBGkAAAAGEECQAAEEaQAAAAYQQJAAAQRpAAAABhBAkAABBGkAAAAGEECQAAEEaQAAAAYQQJAAAQRpAAAABhBAkAABBGkAAAAGEECQAAEEaQAAAAYQQJAAAQRpAAAABhBAkAABBGkAAAAGEECQAAEEaQAAAAYQQJAAAQRpAAAABhBAkAABBGkAAAAGEECQAAEEaQAAAAYQQJAAAQRpAAAABhBAkAABBGkAAAAGEECQAAEEaQAAAAYQQJAAAQRpAAAABhBAkAABBGkAAAAGEECQAAEEaQAAAAYQQJAAAQRpAAAABhBAkAABBGkAAAAGEECQAAEEaQAAAAYQQJAAAQRpAAAABhBAkAABBGkAAAAGEECQAAEEaQAAAAYQQJAAAQRpAAAABhBAkAABBGkAAAAGEECQAAEEaQAAAAYQQJAAAQRpAAAABhBAkAABBGkAAAAGEECQAAEEaQAAAAYQQJAAAQRpAAAABhBAkAABBGkAAAAGEECQAAEEaQAAAAYQQJAAAQRpAAAABhBAkAABBGkAAAAGEECQAAEEaQAAAAYQQJAAAQRpAAAABhBAkAABBGkAAAAGEECQAAEEaQAAAAYQQJAAAQRpAAAABhBAkAABBGkAAAAGEECQAAEEaQAAAAYQQJAAAQRpAAAABhBAkAABBGkAAAAGEECQAAEEaQAAAAYQQJAAAQRpAAAABhBAkAABBGkAAAAGEECQAAEEaQAAAAYQQJAAAQRpAAAABhBAkAABBGkAAAAGEECQAAEEaQAAAAYQQJAAAQRpAAAABhBAkAABBGkAAAAGEECQAAEEaQAAAAYQQJAAAQRpAAAABhBAkAABBGkAAAAGEECQAAEEaQAAAAYQQJAAAQRpAAAABhBAkAABBGkAAAAGEECQAAEEaQAAAAYQQJAAAQRpAAAABhBAkAABBGkAAAAGEECQAAEEaQAAAAYQQJAAAQRpAAAABhBAkAABBGkAAAAGEECQAAEEaQAAAAYQQJAAAQRpAAAABhBAkAABBGkAAAAGEECQAAEEaQAAAAYQQJAAAQRpAAAABhBAkAABBGkAAAAGEECQAAEEaQAAAAYQQJAAAQRpAAAABhBAkAABBGkAAAAGEECQAAEEaQAAAAYQQJAAAQRpAAAABhBAkAABBGkAAAAGEECQAAEEaQAAAAYQQJAAAQRpAAAABhBAkAABBGkAAAAGEECQAAEEaQAAAAYQQJAAAQRpAAAABhBAkAABBGkAAAAGEECQAAEEaQAAAAYQQJAAAQRpAAAABhBAkAABBGkAAAAGEECQAAEEaQAAAAYQQJAAAQRpAAAABhBAkAABBGkAAAAGEECQAAEEaQAAAAYQQJAAAQRpAAAABhBAkAABBGkAAAAGEECQAAEEaQAAAAYQQJAAAQRpAAAABhBAkAABBGkAAAAGEECQAAEEaQAAAAYQQJAAAQRpAAAAPjvqftTu12/27ejI+PpVPudc86guEgSKDPnXjiCXWu/w3SvwsQ45yzH5Re8PxfTg9/2EPT5s2b69Let23r1vTt3/bI9OIXPi/d8573qEthOLQ6WZ0H+tQVV16VPv3pz6b//PJX0jXXfi0tLi7WZ3pb+RTzXvmN9373PS2dc86D0u5T71OfGVwf+ODF6d3veV8d9bfTdp+aLnz2BXU0mC79/GXp9W94cx31t82bJ9OrXvmyOhoOZRPniiuuSldcdVW6+uprm/XjN75xY1pYWKiviDEyMpJOOGFXsyfk3qfcK+3efZ906n3unVqtVn0FDBdBAgNmdnY2Xff169P119/QPG66+ea0Z+++tLc+NvqNuLzxHnfcjuZxfH7s2rkznXTS3ZrHyXc/KY2Pj9dXDgdB0l8EyeApmz1lXXjjTTenm2/ekw4cOJAOHDyYpwfTwTydnp5JMzMzaTo/ZvL87Nxc8yHP0uNo5UOVpcf42Fia2DSRJibG06aJTWlTnt+yZUvatm1rs/dj27ZtaefO49MJu3am448/TnzAUQQJDJmpqel0+PDhdOhQfhw+1IxLxMzkx+xMd1qi5eg34KU34XYrv/GO3PIGXGJjIgfFeH4Dbqb5MTm5KW3ZvCW/EW9uDpcoY24hSPqLIOG2jqwP8zoQWBuCBGADCZL+IkgA1p+8BwAAwggSAAAgjCABAADCCBIAACCMIAEAAMIIEgAAIIwgAQAAwggSAAAgjCABAADCCBIAACCMIAEAAMIIEgAAIIwgAQAAwggSAAAgjCABAADCCBIAACCMIAEAAMIIEgAAIIwgAQAAwggSAAAgjCABAADCCBIAACCMIAEAAMIIEgAAIIwgAQAAwggSAAAgjCABAADCCBIAACCMIAEAAMIIEgAAIIwgAQAAwggSAAAgjCABAADCCBIAACCMIAEAAMIIEgAAIIwgAQAAwggSAAAgjCABAADCCBIAACCMIAEAAMIIEgAAIIwgAQAAwggSAAAgjCABAADCCBIAACCMIAEAAMIIEgAAIIwgAQAAwggSAAAgjCABAADCCBIAACCMIAEAAMIIEgAAIIwgAQAAwggSAAAgjCABAADCCBIAACCMIAEAAMIIEgAAIIwgAQAAwggSAAAgjCABAADCCBIAACCMIAEAAMK0OlmdB/rUxz/+iXTJJZ+to/XRarXSxMREmpycTJs3TzbT8tixY0c65ZRT0tatW+oruTMf+ODF6d3veV8d9bfTdp+aLnz2BXU0mC79/GXp9W94cx31t/Jz+6pXvqyOBtd6rw/b7XbatGnTUY+JZnrCCbvSySffI23fvq2+ElguQQID4C1veWt617v+oo5i7Nx5fLr3ve+dH6ek3bt3p4c//Nx0/PHH12dZIkj6iyDpP9Hrw61bt6Z73OPk/LhHOuOM09NDHnJOute97lmfBW6PQ7aANXHzzXvSZz5zSXrve9+XXvva16UnPekp6TnPeV76y7/8q3T99dfXVwEMtoMHD6b/+I8vpX/+54vT61//hvT0p/98espTfja97nX/p9l743Ng+GaCBFgX5U33C1+4LL3pTW9OT33qz6WLLnpJuuKKK+uzAMPjhhu+kf72b/8u/cqvvDw94xkXpL//+39I8/Pz9VlAkAAb4lOf+nT6hV94dvqt3/qddNNNN9elAMPlmmuuSb/9269rPqh5//v/vi6F4SZIgA2zuLiY/uEf/jE97WnPaD4hBBhWN910U/qd3/nd9OpXvybNzMzUpTCcBAmw4cqbb/mE8E//9F11CcBw+qd/ujg9+9nPSddee21dAsNHkABh3vrWP05veMOb6ghgOF111VXp+c+/KO3bt68ugeEiSIBQf/VX701/+IdvqSOA4VQO4Xr1q3/TVbgYSoIECPfud78nXXbZ5XUEMJzKxT/e+c4/qyMYHoIECFdOdi9X35qbm6tLADZOuYnrwx/+sLt8POxhD03f+q3fkh7wgPs3N4LdvHlz/Q5r5x3veGe68cYb6wiGgzu1wwBYzZ2Jzzvv4en5z39uHd25EgzT09P1MdO8WV577deakzAvv/yL6ctf/kp95bF53ON+LD31qT9dR4PJndr7izu195/VrA/PP/8R6aKLXlBHK7N3795mfXjppZ9P//7vn2zWiQsLC/XZ1fmpn3pi+smffHwdweCzhwSG1MhIO01MTCzrMTk52XyCePLJJ6fdeSP0YQ87N/3QD/1guuCCn0+ve91vp7e//Y/SL/7iBek+97lP/e6r8+53/1Vzl2OAfnHcccelBz7wrPT4xz8uvfrVv5be/OY3pv/6X78/jY2N1Ves3D/+4wfqHAwHQQIcs507d6bHPvZ70+///uvSRRf9r7Rr1676zMqUOxd/5CMfrSOA/nPiiSekZz3rmem1r31NOumku9WlK3PddV9v9rjAsBAkwJo6//xHpt/+7dek+973vnXJyvzLv3y4zgH0r1NPPTVHyW+mE044oS5Zmc985pI6B4NPkABrbteunemVr/zV5jCvlSpvwg7bAgbB9u3b0y/90i/W0crceONNdQ4GnyAB1sXWrVvSM57xtDpavu5hWx+rI4D+ds45ZzfnmKxUuS8JDAtBAqybRz3q29M97nGPOlq+ctdigEHx7d/+bXVu+QQJw0SQAOvqvPMeVueWb8+evXUOoP+dccbpdW75brrp5joHg0+QAOvq3HMfWueWb8+ePXUOoP+t5ny6bdu21TkYfIIEWFd3u9uJdW75yo3GAAZFOadupe51r3vWORh8ggRYVzt2HFfnls8eEmCQ7N+/v84tnyBhmAgSYF2VTwZbrVYdLc+BAy77CwyO1ez1FSQME0ECrKvDhw+nTqdTR8szPj5W5wD63+WXf7HOLd+97nWvOgeDT5AA62rfvn11bvm2bNla5wD638c+9ok6tzwnnnjiqq7MBf1KkADrajWXrtyyZeUngAL0oiuvvDJ97nOX1tHy/PiP/1gaHR2tIxh8ggRYV5/5zCV1bvm2b3e5S2AwvP71b0wLCwt1dNdOOGFX+t7v/e46guEgSIB19fGPr+xQhWL37lPrHED/etOb3pw++9nP1dHy/NiP/ai9IwwdQQKsmy996T/Tl7/8lTpavgc84P51DqD/zM3NNXtG/vIv/6ouWZ4TTjghfd/3fW8dwfAQJMC6ecMb3rTiK2wVggToR4uLi+mjH/1YeuYzL0jvfe9f16XLs2nTRHrRi16QxsZcZZDhI0iAdfGe9/x1+vznv1BHy7dz5/Eudwn0jeuvv745NPX1r39DetKTnpJe9rJXpOuu+3p9dnlGRkbSL//yhen+979fXQLDpdVZzceXQE95y1vemt71rr+oo+U5//xHpIsuekEdra2//du/S7/7u7+3qr0j5eoyT3nKT9fR4PnABy9O737P++qov522+9R04bMvqKPBdOnnL0uvf8Ob66i/bd48mV71ypfV0eBazfqwnEh+1lln1dEdKyenT01NHXl8/evXp+np6frs6mzfvj09//nPTWef/eC6BIaPPSTAmilv0OW46dXGSLmju6vLABvtxhtvSh/60L/c5ePDH/639KlPfTpddtnl6corrzrmGHnQg741/c7v/KYYYegJEuCYlRD5u7/7h/T0pz+rOW56tTtezznn7HTyySfXEcBguu9975te/vJfSb/2a69Id7vb3epSGF6CBFixcuJm+XTwAx/4p/TqV/9meuITfzq99rWvSzfddFN9xcqVEzmf+cyn1xHAYDnppLulH/uxH0m/8zu/lV73ut9KD33oQ+ozgHNIYACs5pjpXbt2pTPPPL2O7lwJkMOHp/LjcPO4/vobmstarqUnPvEnm8egcw5Jf3EOSf9ZzfpwI/zgD/639MhHnpfOOOP0NDExUZcChSCBAdCrb8DL9S3f8sD0v//3y4fiZmCCpL8Ikv7T6+vDckWt007bnc477+HpMY/5znTSSSfVZ2B4OWQLCPWQh5yTXv7yl7ozMTAUypW6yk1j3/72d6Sf+Zmnp+c//4XNyfIwzAQJEOYRjzgv/cqvvChNTIzXJQDDoxyk8tnPfi694hW/lp773Oc3oQLDSJAAIb7jOx6VLrrof9kzApCVG8k++9m/3Bxy5mh6ho0gATbcYx/7Pel//s9fTu22VRAQb+vWrc1d0pf7OPXU+zTnfuzYsWNNT1AvIVLOf/nVX31lmpmZqUth8DmpHQZAv5zUXu4zUq6kddZZZ9Ylw8dJ7f3FSe39ZzXrw/PPf0S66KIX1NHKHThwIF1zzbXN48tf/kr6xCc+ka677uv12dV54APPSq985a/ai8xQ8PEksO7Kieuvec2r0ite8bKhjhFgMG3bti2deeYZ6bu/+zHpmc/8ufSHf/iG9Ad/8Hvp8Y9/XA7BzfVVK1MO4XrDG95URzDYBAmwbh784Ac1IfKrv/rS5s0aYFiccsq90pOf/FPpLW95Y/qRH/mh1Gq16jPL9773/X/pQx/61zqCwSVIgHVz3/ueJkSAoVb2njztaT+TXvCC56VNm1Z+vsnb3vb25ua0MMgECQypchhBuTnXch9jY2P1K5fvr//6b9LXvnZdHQEMr//yX85PL3rRC1e8p+RrX/uavSQMPEECQ+rssx+Ufvd3X7vsxw/90H+vX7l8c3Nz6Y1v/MM6Ahhu5cIeP/iD/7WOlu8973lvnYPBJEiAZXn8438sbd++vY6W72Mf+3j6zGcuqSOA4VbOK1npoVvlhomHDh2qIxg8ggRYlnKI1xOe8BN1tDJlL4ljoAFSjpFN6bzzzquj5Snrz0sv/XwdweARJMCyff/3PzadfPLJdbR8V1xxZXr/+/++jgCGW7nvyUqVywDDoBIkwLKVG3T9zM88uY5W5o//+P865AAgK3d5X6mbbrq5zsHgESTAipQrxZxxxsov5btv3770J3/yp3UEMLx27dpZ55Zv//79dQ4GjyABVuxpT3tqnVsZlwEGSGliYuX3Izlw4ECdg8EjSIAVO+usM9P55z+yjpavXAb4TW96cx0BDKc9e/bWueXrdDp1DgaPIAFW5alPfXIaGRmpo+X76Ec/5jLAwFDbs2dPnVu+nTtXfpgX9AtBAqzKPe95j+aqW6vhMsDAMLvqqqvq3PKdcMKuOgeDR5AAq/bEJ/5kc3+SlXIZYGCYffjDH6lzy2cPCYNMkACrVu7c/rjH/WgdrUy5DPDhw4frCGA47N27d1X3FLGHhEEmSIBj8sM//N/zG+UJdbR85TLA73jHO+sIYDi8+c1/lBYWFupo+e5971PqHAweQQIck/Hx8fTTP/3EOloZlwEGhsmnPvXp9I//+ME6Wr673/3u6fTTT68jGDyCBDhmj3nMd6Xdu3fX0fK5DDAwLD73uUvTK1/5qjpame/6rkfXORhMggQ4Zq1WK/3szz6ljlbGZYCBQfeBD3wwXXTRS9KhQ4fqkpX5zu8UJAw2QQKsiYc85JzmsRouAwwMoi984bJ04YX/M73mNb/d7BFejTPPPKO5zDoMMkECrJmf/dmnpnZ75asVlwEGBsW1116b/vRP35V+4ReenZ7znOelyy+/vD6zcuXms894xs/VEQwuQQKsmd27T23OJ1kNlwEGouzbtz9dcslnl/3493//ZPrQh/41/d3f/UP6q796b/q933t9et7zXpB+4ieelH7u534+vfWtf5y+/OWv1O++eo9//OPSAx5w/zqCwdXqZHUe6FNvectb07ve9Rd1tDznn/+IdNFFL6ijtXPTTTelpz3tmWlmZqYuWb4f/dEfbvayDLIPfPDi9O73vK+O+ttpOUAvfPYFdTSYLv38Zen1bxiMCy9s3jyZXvXKl9XR4FrN+rAX3e9+902/9Vu/0ewlgUFnDwmwpnbt2tXcm2Q13vve97kMMDD0tm3bmp773AvFCENDkABrrty9fceOHXW0fC4DDAy7cqPZV7/619Ipp7gRIsNDkABrbnJyMj3hCT9RRytTLgNcjtEGGDblbuy/+ZuvytN71yUwHAQJsC6+//sfu+pLVb7hDW9yGWBgqJxzztnpN37j15s9JDBsBAmwLsqxz0996pPraGVcBhgYFieffHJ60YtekF7xipelrVu31qUwXAQJsG7OP/+R6YEPPKuOVsZlgIFBtnnz5uaqgn/wB/8nPfKRj6hLYTgJEmBdrfYyvvv27Ut/8id/WkcA/W90dDQ97GHnpuc858L0x3/8luZS52UZDDtBAqyrM844PX3bt/2XOloZlwEG+t0JJ+xK55338PTsZ/9Cesc73pZe+tIXp+/6rkc3F/8AugQJsO6e+tSfXtWngC4DDPSqcp7ctm3b0kknnZR2797dHJ5a9n489rHfk575zKenX//1/53+7M/ekd72trekl7zkovQ93/PdzhGBO+BO7QAbyJ3a+4s7tQOsP3tIAACAMIIEAAAII0gAAIAwggQAAAgjSAAAgDCCBAAACCNIAACAMIIEAAAII0gAAIAwggQAAAgjSAAAgDCCBAAACCNIAACAMIIEAAAII0gAAIAwggQAAAgjSAAAgDCCBAAACCNIAACAMIIEAAAII0gAAIAwggQAAAgjSAAAgDCCBAAACCNIAOAObNmyuc71v82bB+ffBRgsggQA7sDuU++TfuqJj0+7du2sS/rTmWecnp759J+pI4De0upkdR6AdfaBD16c3v2e99VRfztt96npwmdfUEeD76tXX5M+/4XL039++Svp2mu+lg4eOlSf6S2tViudcMKudO9T7pXOOP0B6ayzTk87tm+vzwL0HkECsIEEyeDYu29fuu6669PNN9+cbropP27ek/bt258OHjyYH4fSocOH03q8xY6OjqatW7akrVu3pG3btqbjjz8u7dq5M+3ceXwTIve8x8lpfHy8vhqg9wkSgA0kSIZHeXs9fHgqTc/MpJn6mJ2dTXNz82lhYSEtLi4e9eikkZF2arXazbTdLtORJiwmJspjIk3k+U2Tm9KmPA8wSAQJwAYSJABwa05qBwAAwggSAAAgjCABAADCCBIAACCMIAEAAMIIEgAAIIwgAQAAwggSAAAgjCABAADCCBIAACCMIAEAAMIIEgAAIIwgAQAAwggSAAAgjCABAADCCBIAACCMIAEAAMIIEgAAIIwgAQAAwggSAAAgjCABAADCCBIAACCMIAEAAMIIEgAAIIwgAQAAwggSAAAgjCABAADCCBIAACCMIAEAAMIIEgAAIIwgAQAAwggSAAAgjCABAADCCBIAACCMIAEAAMIIEgAAIIwgAQAAwggSAAAgjCABAADCCBIAACCMIAEAAMIIEgAAIIwgAQAAwggSAAAgjCABAADCCBIAACCMIAEAAMIIEgAAIIwgAQAAwggSAAAgjCABAADCCBIAACCMIAEAAMIIEgAAIIwgAQAAwggSAAAgjCABAADCCBIAACCMIAEAAMIIEgAAIIwgAQAAwggSAAAgjCABAADCCBIAACBMq5PVeQDW2Qc+eHF693veV0f97bTdp6YLn31BHbFS1157bbrqqq+mvXv3pj17ymPPkfkyXVhYSLt27UonnnhiOuGEMj0hT8tjV7rnPe+Ztm7dWr8TQH8TJAAbSJAMr7m5ufTZz34ufeITn8yPT6Trrvt6fWblRkZG0tlnPzg9+tHfkc4//xFpcnKyPgPQfwQJwAYSJMNlamoq/dM/XZwD5N/TJZdckqanZ+oza2d8fDw9/OHnNnHysIedm8bGxuozAP1BkABsIEEyHObn59Pf/M3fpne+88/Svn376tL1Vw7netrTfjY96lHfVpcA9D4ntQPAGimf8f3jP34g/dzPPTP9wR+8cUNjpLjxxpvSr/3aq9ILXvCidM0119alAL1NkADAGvjIRz6Wfv7nfyH95m++Nl1//Q11aYzPfOaS9Kxn/UJ6y1velmZm1v4wMYC1JEgA4BiUq2H9zu/8bnr5y1+RvvrVr9al8cphY+9615+n//E/fjl94xs31qUAvUeQAMAqHTx4KL3oRb+S3v/+v69Lek+JpAsvfG664oor6xKA3iJIAGAVrrvuumZDvxwe1etuuumm9NznPr8v/lmB4SNIAGCFLr308+mXfum56ZprrqlLet/hw4fTi1/80vS1r11XlwD0BkECACvwyU9+Kr3whS9O+/fvr0v6x4/8yA+le9zj5DoC6A2CBACW6YYbvpFe9arXNHddX2ubNk2kk08+OT3wgWelb//2b0vf8z3/TzrvvIenBzzg/umkk+7W3ADxWDzmMd+ZnvKUn64jgN7hxogAG8iNEftXuWrVc57zvPQf//GluuTYjI6OprPPfnD6tm87vwmPHTt21GfuWDlB/UMf+tf0r//64Tx/dV161x7ykHPSS1/64jQyMlKXAPQOQQKwgQRJ//r93/+D9Nd//Td1tHonn3z39BM/8fj0yEc+Im3duqUuXbkrr7wqvf3t70j/9m8fqUtu333ve1p61atemSYnJ+sSgN7ikC0AuAsXX/yhY46RsbGx9IQn/ER6/ev/T/ru737MMcVIceqp90kXXfS/0ste9ivNoV6356STTsrPv0SMAD1NkADAnbj66mvSa1/7u3W0OuXQrNe//nfTk570hCZM1tK55z6k+d4/8APfV5d0bdu2Lb385b+Sjj/++LoEoDcJEgC4E2984x+m6enpOlq5Rz/6O9Kv/upL73AvxlookXPBBT+ffv7nn9GcJ1JOgH/JSy5K97rXPesrAHqXIAGAO/ClL/1n+vd//2QdrVy5UtZzn3tharc35u32v/23H2gO0Xr+85+bzjrrzLoUoLcJEgC4A+9855/VuZUrh1A9+9m/mFqtVl2yMc455+z0iEecV0cAvU+QAMDtuPLKK9NHP/qxOlqZ009/QHP4FAB3TZAAwO145zvflVZzZfxyPseFF/6PDTtMC6DfWVsCwG1cc821zc0HV+OnfuoJ6ZRTTqkjAO6KIAGA2/jzP//LtLi4WEfLd//73y/9yI/8cB0BsByCBABu42Mf+3idW5nHPe5HHaoFsELWmgBwlCuuuDLt27evjpZv586d6ZGPfEQdAbBcggQAjvLpT3+mzq3MYx/7Pc1NCQFYGUECAEf5zGcuqXPLV0Lk+77vsXUEwEoIEgCo5ufn06WXXlpHy1duRrhr1846AmAlBAkAVJdddnmanp6po+V74APPqnMArJQgAYBqteePnHHG6XUOgJUSJABQXX75F+vc8pXzR04//QF1BMBKCRIAqPbu3Vvnlu/UU++TNm3aVEcArJQgAYBq//79dW757B0BODaCBACq/fsP1Lnl27VrV50DYDUECQBkhw8fbi77u1Jbt26pcwCsRquT1XkA1tkHPnhxevd73ldH/e203aemC599QR31v+uuuy797M8+o46W77nPvTB953c+uo6OzdVXX52+/OWv1NH6uc997pN25z8/gF4gSAA2kCDpXV/84hfTL/3Sc+to+V760henhz3s3Do6Nn/+53+R3vzmt9bR+nn84x+Xnvzkn6ojgFgO2QKAbN++lZ/QXmzbtq3OAbAaggQAstVcYavYvHmyzgGwGoIEALJWq1XnVmZmZrbOAbAaggQAstUeelWuzgXA6gkSAMh27Nhe51bm4MFDdQ6A1RAkAJBt27a6IDl8WJAAHAtBAgDZ9u2rO2Tr0CGHbAEcC0ECANmWLVtSu73yt8WDBw/WOQBWQ5AAQFausrV169Y6Wr4rr7yyzgGwGu7UDrCB3Km9tz396c9K11xzTR0tz4knnpje+tY/rKNjU+4Wf8kln6uj5bvyyqvSP//zxXV019ypHeglggRgAwmS3vbc5z4/ff7zX6ij5fuTP/njtGPHjjraeB/+8L+lV7zi1+rorgkSoJc4ZAsAqjPOOL3OrcyXvvSfdQ6AlRIkAFA9+MEPqnMrI0gAVk+QAED1wAeelUZGRupo+T7+8U/UOQBWSpAAQDU5OZnuf//719HyffGL/5GuuuqrdQTASggSADjKgx/8rXVuZf7u7/6hzgGwEoIEAI6y2vNI/umf/inNz8/XEQDLJUgA4ChnnnlmGhsbq6Pl27dvf/q3f/tIHQGwXIIEAI4yMTGezj57dXtJ3vzmP0rT09N1BMByCBIAuI0f/dEfqXMrc8MN30hve9vb6wiA5RAkAHAbD3rQt6Yzzjijjlbmve99X/qP//hSHQFwVwQJANyOxz/+x+rcyiwuLqbXvvZ308zMTF0CwJ0RJABwO8477+Hp1FPvU0crc8UVV6QXvehXnE8CsAyCBADuwI//+Or2khSXXvr5dNFFL0lTU1N1CQC3R5AAwB141KO+Pd397nevo5X7whcuSy984YvT/v0H6hIAbkuQAMAdaLfb6Rd+4VnNdLUuv/yL6ed+7hnpr//6fc35JevhmmuurXMA/UeQAMCdOOecs9MTnvATdbQ6Bw4cTL//+29Iz3rWL6ZPf/ozdemxO3DgQPr1X391eutb/7guAeg/ggQA7sJP/uTj00Meck4drd5Xv/rV5hCuCy74xfRHf/S25pCu1ew1+dKX/jO97nX/Jz3lKU9LF1/8L3UpQH9qdbI6D8A6+8AHL07vfs/76qi/nbb71HThsy+oo8G3f//+9P/+v/8j3XjjTXXJ2ti2bVuOnbObc1WOO25H2rGj+zjuuONSq9Xdu1L2hHz969enyy+/vDkE7Fj/GR7/+MelJz/5p+oIIJYgAdhAgqS/lT0az3veC9LCwkJd0p8ECdBLHLIFAMt01llnpmc965nHdJI7ALdmjQoAK/B93/e96cUvfmGanJysS/pLian73OfedQQQT5AAwAo9/OEPS695za+nE088sS7pD9u3b08ve9lL0qMf/R11CUA8QQIAq3Dqqaem3/7t16TTT39AXdLbHvCA+6fXve631+RqYQBrSZAAwCodf/xx6VWvemX6ru/6zrqkN/3AD3xf+o3fKHt0TqhLAHqHIAGAYzA2Npae85xfSr/1W69OZ5/94Lq0Nzz0oQ/J/1y/kS644OfT6OhoXQrQW1z2F2ADuezv4Lvkks82d04v9wuJUu4u/6QnPSGdeeYZdQlA7xIkABtIkAyPj33s4+ntb/+T9OUvf7kuWV8jIyPpwQ9+UHrCE36iuTwxQL8QJAAbSJAMnxtuuCH9+79/Kj8+2ew9mZqaqs8cu3JH93PPfUh62MPObU5W37p1a30GoH8IEoANJEiG2/z8fPr857+QPvnJT6XLLrs87d27N+3ZszcdPny4vuL2tVqttH37thwgx6WdO49v9oCUCClXzirPAfQzQQKwgQQJt6eEylKc7Nu3LwfKVBMgxx23o4mQHTu2uzs8MLCs3QAgWLkC1gknnJDuf//7pXPPfWh61KO+rbliV7nXSbm0sBgBBpk1HAAAEEaQAAAAYQQJAAAQRpAAAABhBAkAABBGkAAAAGEECQAAEEaQAAAAYQQJAAAQRpAAAABhBAkAABBGkAAAAGEECQAAEEaQAAAAYQQJAAAQRpAAAABhBAkAABBGkAAAAGEECQAAEEaQAAAAYQQJAAAQRpAAbKBTT713GhkZqaP+dt/77q5zALB6rU5W5wHYAF/72nXp/X//gfS5S7+Q5ubm6tL+8f+3d+dBVlV3AscP3UCzCkgDcUG2xBgrCigucdzJjEsURY2ZSk02JmWqMsmUVZmk5q+pyl+pyh9WTTIVU5VKmTiJJlbcAi4hgIJ7XMCFTAmGRhYbEBC0G+iGbqbv8xjG6LvvPmjm2O9+PlYX5/faP+z3B75vn3vvmTrlpHDJxReGM8+YGV8BgMMnSAAS6e7uDq+s/p/w6qtrQ9vrr4ctW7aF3t7e+N2PjrFjxlR2dj4+Y3qYefqnw7hxY+N3AODICRKAj4h9XV3hjc3tYeu2N8PWrdv6/twWdr61K+zevTt0du4JR/Ov65aWlr7wOCaMHTsmTJw4ofI1aeLEcPxxH6u8BgBHiyABGAB6enr6wuTt8E5HR9i7d2/f176wd1/fV9+6u3t/5fu9fV89Pb2V9cG+f7J7VSpfTdmfTWHw4MFh+PBhYdiwYX1/Dq+sR44cGcb0hciwviABgBQECQAAkIynbAEAAMkIEgAAIBlBAgAAJCNIAACAZAQJAACQjCABAACSESQAAEAyggQAAEhGkAAAAMkIEgAAIBlBAgAAJCNIAACAZAQJAACQjCABAACSESQAAEAyggQAAEhGkAAAAMkIEgAAIBlBAgAAJCNIAACAZAQJAACQjCABAACSESQAAEAyggQAAEhGkAAAAMkIEgAAIBlBAgAAJCNIAACAZAQJAACQjCABAACSESQAAEAyggQAAEhGkAAAAMkIEgAAIBlBAgAAJCNIAACAZAQJAACQjCABAACSESQAAEAyggQAAEhGkAAAAMkIEgAAIBlBAgAAJCNIAACAZAQJAACQjCABAACSESQAAEAyggQAAEhGkAAAAMkIEgAAIBlBAgAAJCNIAACAZAQJAACQjCABAACSESQAAEAyggQAAEhGkAAcBatX/zksWbI0HDhwIL7S+Lq7u8NDD/0hvPbaX+IrAFDboIN94hqAftDb2xu++c1/DRs2bAjHHjsuXHXV58KVV14RjjlmdPw3Gstbb+0KCxcuCg8++HB4++23wymnnBJuueWH8bsAkE+QAPSzRYseDD/5yU/j9K6WlpZw6aWXhPnzrwknnnhCfHVga2tbH+699/6wfPmKsH///vjqu773vX8LF198YZwAoDpBAtCPOjo6w9e//o3KTsGHGTRoUJgz58xw3XXXhpkzT4+vDizPPvtcJURWrXoxvvJBra2t4Wc/+2lfiA2NrwDAh3MPCUA/uuOOO6vGSCb7HVD2gf7OO38bXxl4br/917kxktm+fXu4++574gQA1QkSgH6yefPmyuVaRSxY8NW4GngWLPhKXOX73e/uDjt27IgTAHw4QQLQT2677ZeFnqp1wQXnh5NP/kScBp7Zs2dVvmrZt6+rspsCAHkECUA/WLeuLTz55NNxqq65uTl85StfitPAle3wZPfD1LJs2SNhy5atcQKADxIkAP2g6D0hV1xxWTj++OPiNHDNmDE9XHRR7ado9fT0hN/85q44AcAHCRKAI7R+/frw5JNPxam6YcNawhe/+I9xGvi+/OV/quz41LJ06bKwdatdEgA+nCABOEJ33PHbytOzapk7d24YO3ZsnAa+j31sUuV+mFqyXZK77vpdnADg/QQJwBHITmN/4okn41RdU1NT5VDERpOdp1LEH/+4NGzb9macAOAQQQJwBO666+5CuyPnnnt2Q9w78rc+/vEZ4bTTPh2n6rKnj91zz71xAoBDBAnAYdq9e3d47LHH45Tvuuvmx1Xjuf76Yj/bkiXLwt69e+MEAO8SJACH6eGHF4f9+/fHqbpTTvlkOPXUT8Wp8Zx99llh8uQT41Tdnj17wtKlj8QJAN4lSAAOQ29vb3jggYfilG/evKvjqnEV/RkXLXogrgDgXYIE4DA89dQzYfv27XGqbsSIEeG8886NU+O66KILwpAhQ+JU3YYNG8OLL74UJwAQJACHZeHCRXGV7/zzzwtDhw6NU+MaNWpUOOusOXHKt3ChXRIADhEkAHXatGlzeOmll+OUb+7cS+Oq8c2de0lc5XvmmT+FnTt3xgmAshMkAHV69NHlcZVv4sQJhR6J2yiyHZLRo0fHqbrsoMQVK4o9nQyAxidIAOr06KMr4irfpZcW2zFoFIMHDw4XXnhBnPIVjToAGp8gAajD2rWvhTfeeCNO+Yp+OG8k2c3tRaxZsza0t7fHCYAyEyQAdVi+vNjuSGtra5g6dUqcyiM7b2XkyJFxyld0pwmAxiZIAAo6ePBgX5A8Fqd8c+acEVfl0tTUFGbPnhWnfEXjDoDGJkgAClq9+s9hx44dcco3Z86ZcVU+RWMsO5Nk/fr1cQKgrAQJQEHPPfd8XOVrbm4uvEvQiM48s3iMPffcC3EFQFkJEoCCVq16Ma7yZfdRDB8+PE7lM378sWHatGlxyrdy5aq4AqCsBAlAAR0dHeG11/4Sp3yzZs2Mq/KaNev0uMqXXQa3f//+OAFQRoIEoIAXX3wp9Pb2xinfjBnT46q8ZsyYEVf5uru7K1ECQHkJEoACXnih+KVFRS9XamTTpk2Nq9pWrix2KRwAjUmQABSwalWxIBk1alSYMKE1TuU1efKJlZPbi1i5cmVcAVBGggSghl27doX29i1xylfPzkAjy2Jk8uTJccq3bl1b6OrqjhMAZSNIAGpoayt+VobLtQ6ZPr1YnGX35rz++utxAqBsBAlADdlv8Isq+iG8DOqJs3qiD4DGIkgAarBDcnjquXytra149AHQWAQJQA1FPyxnJ7RPmXJSnJg+3Q4JALUJEoAcBw4cCBs3bopTvuOPPy4MHTo0TowZMyYce+y4OOUTJADlJUgAcmzatKkSJUXUsyNQFlOnFrtsKzsJ/803t8cJgDIRJAA5tmzZGle1uX/kg+qJtK1bi7/XADQOQQKQY8eOnXFV29SpU+KK99RzY/v27TviCoAyESQAOXbsKP4hedy4YvdLlEk978nOncXjD4DGIUgActSzQzJq1Mi44j0jRxZ/T+yQAJSTIAHIUc8OST0fvsuinvfEDglAOQkSgBz17JCMGDEirnjPyJHF35N64g+AxiFIAHIU/ZDc0tISBg8eHCfeU88OST3xB0DjECQAOTo7O+MqXz07AWWSRVrRwyI7OzviCoAyESQAVWQHIh48eDBO+dw/Ul3R96arqzuuACgTQQJQRVdXV1zVJkiqK/re7N+/P64AKBNBAlBFd3fxD8huaK+u6OVs2W6UKAEoH0ECUMX+/cUvIRo1alRc8bfq2T3q7nbZFkDZDDpY9AJpgJLZuHFT+MY3vhmnfFdccVn49rf/JU79J3vy1AMPPBino2vYsGHhxhtviFP/+cEPfhgee+zxOOX79a9vD+PGjY0TAGUgSACqWLduXfjWt26OU74bbrguLFjw1Tj1nzVr1oabb/5OnI6uMWOOCXfe+as49Z8f/ei/wsMPL45Tvttu+1mYNGlSnAAoA5dsAVRx4EBPXNVW9NG2ZVTPe9PT0xtXAJSFIAGoYujQIXFV2549e+KKv1XPezNkSPH3HIDGIEgAqhgypPhv9js6ih2gWEadncWDpKXFThNA2QgSgCrq+XC8Z48gqaajo/gJ7HZIAMpHkABUUc+9D/XsApRNPZdstbS0xBUAZSFIAKqoJ0hcslVd0Vhrbm4OTU3+twRQNv7mB6iiniBxyVZ1nZ3FLtnypDKAchIkAFVkv63PfmtfhB2S6vbs2RtX+QQJQDk5GBEgx5e+9LWwY8eOOFWXhcvChffGqf/09vaGffv2xenoGjRoUBg+fHic+kf2337ddTfGKd+UKVPCrbf+OE4AlIUdEoAc48cfG1f5enp6QldXV5z6T7ZLM2LEiP+Xr/6OkUxnZ/Gdo6LvNQCNRZAA5Bg/fnxc1eayrQ+qL0iKv9cANA5BApCjnt/au7H9g+qJNDskAOUkSABy2CE5MvWcQWKHBKCcBAlAjnp+a9/eviWueE97e3tc1WaHBKCcBAlAjnp+a9/W1hZXvGfduvVxVZsdEoByEiQAOSZPPjGuamtrK/7huyyKRlr2yOETTzwhTgCUiSAByNHa2hpGjx4Vp3zr1tkh+b+yM1Ref31DnPJNmjTpqDx2GICPPkECUMPUqVPjKt+uXbvCW2/tihNvvNFe+GyW6dOLvccANB5BAlDD9OnT4qq29etdtvWeenaMikYfAI1HkADUMG1a8Q/LLts6pJ6b/OuJPgAaiyABqGHatOIflgXJIfXc5F9P9AHQWAQJQA1TppwUBg8eHKd8Hv17SNE4GzFiRDjuuOPiBEDZCBKAGoYOHRo++cmT45Rv06bN4cCBA3Eqr46OjrB9+/Y45TvttE/HFQBlJEgACjjjjNlxlS+LkQ0bNsapvOq5dG327FlxBUAZCRKAAmbNmhlXtblsq777RwQJQLkJEoACsku2snsdinj11TVxVV5r1hR7D1pbx9d1Gj4AjUeQABTQ1NQUTj/9tDjle/75F+KqnA4ePBheeGFlnPLVs/MEQGMSJAAFzZ5d7MNze/uWyinlZbV27Wth9+6345TP5VoACBKAgs4555wwaNCgOOV77rnn46p8iv7s2aOU58w5M04AlJUgASho4sQJ4dRTPxWnfOUOkmKXrGVPLhs9enScACgrQQJQh4suujCu8r388iuhu7s7TuXxzjvvFL6h/eKLi72XADQ2QQJQhwsu+LvQ3Nwcp+q6urrCqlUvxqk8nn32+dDb2xun6oYNawnnnntOnAAoM0ECUIcxY8aEmTNPj1O+ZcsejavyWLbskbjKd845Z/dFybA4AVBmggSgTpdcclFc5Xv66WfCnj174tT4du7cWXhXqOilbwA0PkECUKfzzvtMGD58eJyqy+4heeyxJ+LU+B59dEWhy7XGjh3r6VoA/JUgAahTFiNz514Sp3xFL2FqBEuXLourfJdf/g+VR/4CQEaQAByGq6/+XFzle+WV1WHbtm1xalxtbesrX7VkDwS48srL4wQAggTgsEyePLnQze0HDx4MixcviVPj+sMfFsdVvuzJWq2trXECAEECcNiK7pI88MCDDX0mSUdHZ+HouuqqK+MKAN4lSAAOU9Hf9u/e/XZYsqTY/RUD0YMPPhT27dsXp+pOOumkwo9MBqA8BAnAYWpqagrz5hXbJbnvvvsrl281mgMHDoTf/35RnPJde+3VcQUAhwgSgCNw1VWfC8ccc0ycqtu0aXN45pk/xalxLF++onL+SC0TJkwIn/3s3DgBwCGCBOAIZKeNz59/TZzy3XPPfXHVOIr+TDfeeINH/QLwoQQJwBGaN++qMHr0qDhVlz0C+OWXX4nTwPfUU08XetRva+v4cNllfx8nAHg/QQJwhLKDEq+9ttguyc9/fltcDWzZiey/+MXtccr3+c/bHQGgOkEC0A+uuebqMGpU7V2SNWvWhscffyJOA9fixX8MGzduilN148ePr5zMDgDVCBKAfjBixIhw/fXz45Tvl7/879DT0xOngaerqzv86ld3xinfF77w+TBkyJA4AcAHCRKAfpLd3D5x4oQ4Vbd58xvh4YeLnWz+UZQ9wrjIk7Wyc0euvPLyOAHAhxMkAP1k6NChYcGCr8Up37Jlj8TVwJKdpfLII8vjlO+mm/65clYLAOQZ1Pc/l8Y7qQsgoe9+99/D6tV/jtP7nXrqp8L8+deGz3zmnAH7YT27oX3FisfDvffeF9aufS2++n5nnTUnfP/7/xEnAKhOkAD0s+xD+s03f+evJ7M3NzeH888/rxIiJ5/8icprjSJ7lHF2CdfTT/+pEiqZ7Ilat97643DCCSdUZgDII0gAjoJbbvnPyjkd2ROm5s27OkyY0Bq/05ja29vD/fcvDIsXL6n8zDfd9PX4HQDIJ0gAjoKOjs7Q3NxUOaOkTDo7OyuXopXt5wbg8AkSAAAgGY8/AQAAkhEkAABAMoIEAABIRpAAAADJCBIAACAZQQIAACQjSAAAgGQECQAAkIwgAQAAkhEkAABAMoIEAABIRpAAAADJCBIAACAZQQIAACQjSAAAgGQECQAAkIwgAQAAkhEkAABAMoIEAABIRpAAAADJCBIAACAZQQIAACQjSAAAgGQECQAAkIwgAQAAkhEkAABAMoIEAABIRpAAAADJCBIAACAZQQIAACQjSAAAgGQECQAAkIwgAQAAkhEkAABAMoIEAABIRpAAAADJCBIAACAZQQIAACQjSAAAgGQECQAAkIwgAQAAkhEkAABAMoIEAABIRpAAAADJCBIAACAZQQIAACQjSAAAgGQECQAAkIwgAQAAkhEkAABAMoIEAABIRpAAAADJCBIAACAZQQIAACQjSAAAgGQECQAAkIwgAQAAkhEkAABAMoIEAABIRpAAAADJCBIAACAZQQIAACQjSAAAgGQECQAAkIwgAQAAkhEkAABAMoIEAABIRpAAAADJCBIAACAZQQIAACQjSAAAgGQECQAAkIwgAQAAkhEkAABAMoIEAABIRpAAAADJCBIAACAZQQIAACQjSAAAgGQECQAAkIwgAQAAkhEkAABAMoIEAABIRpAAAADJCBIAACAZQQIAACQjSAAAgGQECQAAkIwgAQAAEgnhfwFdA+S0HeiX5wAAAABJRU5ErkJggg==;" parent="3nQhZn90yMpWdJ_Ba0Em-26" vertex="1">
          <mxGeometry x="180" y="98.25" width="33.5" height="80" as="geometry" />
        </mxCell>
        <mxCell id="3nQhZn90yMpWdJ_Ba0Em-23" style="edgeStyle=orthogonalEdgeStyle;shape=connector;rounded=0;orthogonalLoop=1;jettySize=auto;html=1;entryX=0;entryY=0.54;entryDx=0;entryDy=0;entryPerimeter=0;labelBackgroundColor=default;strokeColor=default;fontFamily=Helvetica;fontSize=11;fontColor=default;endArrow=none;endFill=0;" parent="1" source="3nQhZn90yMpWdJ_Ba0Em-10" target="3nQhZn90yMpWdJ_Ba0Em-18" edge="1">
          <mxGeometry relative="1" as="geometry" />
        </mxCell>
        <mxCell id="3nQhZn90yMpWdJ_Ba0Em-24" style="edgeStyle=orthogonalEdgeStyle;shape=connector;rounded=0;orthogonalLoop=1;jettySize=auto;html=1;exitX=1;exitY=0.5;exitDx=0;exitDy=0;exitPerimeter=0;entryX=0;entryY=0.54;entryDx=0;entryDy=0;entryPerimeter=0;labelBackgroundColor=default;strokeColor=default;fontFamily=Helvetica;fontSize=11;fontColor=default;endArrow=none;endFill=0;" parent="1" source="3nQhZn90yMpWdJ_Ba0Em-11" target="3nQhZn90yMpWdJ_Ba0Em-21" edge="1">
          <mxGeometry relative="1" as="geometry" />
        </mxCell>
        <mxCell id="3nQhZn90yMpWdJ_Ba0Em-25" style="edgeStyle=orthogonalEdgeStyle;shape=connector;rounded=0;orthogonalLoop=1;jettySize=auto;html=1;exitX=1;exitY=0.5;exitDx=0;exitDy=0;exitPerimeter=0;entryX=0;entryY=0.54;entryDx=0;entryDy=0;entryPerimeter=0;labelBackgroundColor=default;strokeColor=default;fontFamily=Helvetica;fontSize=11;fontColor=default;endArrow=none;endFill=0;" parent="1" source="3nQhZn90yMpWdJ_Ba0Em-12" target="3nQhZn90yMpWdJ_Ba0Em-22" edge="1">
          <mxGeometry relative="1" as="geometry" />
        </mxCell>
        <mxCell id="3nQhZn90yMpWdJ_Ba0Em-30" style="edgeStyle=orthogonalEdgeStyle;shape=connector;rounded=0;orthogonalLoop=1;jettySize=auto;html=1;exitX=1;exitY=0.54;exitDx=0;exitDy=0;exitPerimeter=0;entryX=1;entryY=0.5;entryDx=0;entryDy=0;labelBackgroundColor=default;strokeColor=default;fontFamily=Helvetica;fontSize=11;fontColor=default;endArrow=none;endFill=0;" parent="1" source="9lYTIOy7iqZjpeC6-Jbm-11" target="3nQhZn90yMpWdJ_Ba0Em-6" edge="1">
          <mxGeometry relative="1" as="geometry">
            <Array as="points">
              <mxPoint x="580" y="320" />
              <mxPoint x="580" y="200" />
            </Array>
          </mxGeometry>
        </mxCell>
        <mxCell id="3nQhZn90yMpWdJ_Ba0Em-1" value="" style="rounded=0;whiteSpace=wrap;html=1;container=0;" parent="1" vertex="1">
          <mxGeometry x="40" y="170" width="60" height="900" as="geometry" />
        </mxCell>
        <mxCell id="3nQhZn90yMpWdJ_Ba0Em-6" value="GND (-)" style="text;html=1;strokeColor=none;fillColor=none;align=center;verticalAlign=middle;whiteSpace=wrap;rounded=0;container=0;" parent="1" vertex="1">
          <mxGeometry x="50" y="190" width="50" height="20" as="geometry" />
        </mxCell>
        <mxCell id="3nQhZn90yMpWdJ_Ba0Em-7" value="D3" style="text;html=1;strokeColor=none;fillColor=none;align=center;verticalAlign=middle;whiteSpace=wrap;rounded=0;container=0;" parent="1" vertex="1">
          <mxGeometry x="50" y="270" width="50" height="20" as="geometry" />
        </mxCell>
        <mxCell id="3nQhZn90yMpWdJ_Ba0Em-8" value="D5" style="text;html=1;strokeColor=none;fillColor=none;align=center;verticalAlign=middle;whiteSpace=wrap;rounded=0;container=0;" parent="1" vertex="1">
          <mxGeometry x="50" y="310" width="50" height="20" as="geometry" />
        </mxCell>
        <mxCell id="3nQhZn90yMpWdJ_Ba0Em-9" value="D6" style="text;html=1;strokeColor=none;fillColor=none;align=center;verticalAlign=middle;whiteSpace=wrap;rounded=0;container=0;" parent="1" vertex="1">
          <mxGeometry x="50" y="350" width="50" height="20" as="geometry" />
        </mxCell>
        <mxCell id="NnTMt4p5JRez1Ccp5Ux5-1" value="D2" style="text;html=1;strokeColor=none;fillColor=none;align=center;verticalAlign=middle;whiteSpace=wrap;rounded=0;container=0;" parent="1" vertex="1">
          <mxGeometry x="50" y="525" width="50" height="20" as="geometry" />
        </mxCell>
        <mxCell id="NnTMt4p5JRez1Ccp5Ux5-3" value="+5V" style="text;html=1;strokeColor=none;fillColor=none;align=center;verticalAlign=middle;whiteSpace=wrap;rounded=0;container=0;" parent="1" vertex="1">
          <mxGeometry x="50" y="565" width="50" height="20" as="geometry" />
        </mxCell>
        <mxCell id="NnTMt4p5JRez1Ccp5Ux5-11" value="" style="group" parent="1" vertex="1" connectable="0">
          <mxGeometry x="364.75" y="460" width="138" height="150" as="geometry" />
        </mxCell>
        <mxCell id="NnTMt4p5JRez1Ccp5Ux5-6" value="" style="group" parent="NnTMt4p5JRez1Ccp5Ux5-11" vertex="1" connectable="0">
          <mxGeometry x="60" width="78" height="150" as="geometry" />
        </mxCell>
        <mxCell id="NnTMt4p5JRez1Ccp5Ux5-7" value="" style="rounded=0;whiteSpace=wrap;html=1;" parent="NnTMt4p5JRez1Ccp5Ux5-6" vertex="1">
          <mxGeometry x="-60" width="138" height="150" as="geometry" />
        </mxCell>
        <mxCell id="NnTMt4p5JRez1Ccp5Ux5-4" value="" style="sketch=0;outlineConnect=0;fontColor=#232F3E;gradientColor=none;fillColor=#7AA116;strokeColor=none;dashed=0;verticalLabelPosition=bottom;verticalAlign=top;align=center;html=1;fontSize=12;fontStyle=0;aspect=fixed;pointerEvents=1;shape=mxgraph.aws4.iot_thing_humidity_sensor;" parent="NnTMt4p5JRez1Ccp5Ux5-6" vertex="1">
          <mxGeometry width="78" height="78" as="geometry" />
        </mxCell>
        <mxCell id="NnTMt4p5JRez1Ccp5Ux5-5" value="" style="sketch=0;outlineConnect=0;fontColor=#232F3E;gradientColor=none;fillColor=#7AA116;strokeColor=none;dashed=0;verticalLabelPosition=bottom;verticalAlign=top;align=center;html=1;fontSize=12;fontStyle=0;aspect=fixed;pointerEvents=1;shape=mxgraph.aws4.iot_thing_temperature_humidity_sensor;" parent="NnTMt4p5JRez1Ccp5Ux5-6" vertex="1">
          <mxGeometry y="70" width="78" height="78" as="geometry" />
        </mxCell>
        <mxCell id="NnTMt4p5JRez1Ccp5Ux5-8" value="-" style="text;html=1;strokeColor=none;fillColor=none;align=center;verticalAlign=middle;whiteSpace=wrap;rounded=0;container=0;" parent="NnTMt4p5JRez1Ccp5Ux5-11" vertex="1">
          <mxGeometry y="25" width="50" height="20" as="geometry" />
        </mxCell>
        <mxCell id="NnTMt4p5JRez1Ccp5Ux5-9" value="OUT" style="text;html=1;strokeColor=none;fillColor=none;align=center;verticalAlign=middle;whiteSpace=wrap;rounded=0;container=0;" parent="NnTMt4p5JRez1Ccp5Ux5-11" vertex="1">
          <mxGeometry y="65" width="50" height="20" as="geometry" />
        </mxCell>
        <mxCell id="NnTMt4p5JRez1Ccp5Ux5-10" value="+" style="text;html=1;strokeColor=none;fillColor=none;align=center;verticalAlign=middle;whiteSpace=wrap;rounded=0;container=0;" parent="NnTMt4p5JRez1Ccp5Ux5-11" vertex="1">
          <mxGeometry y="105" width="50" height="20" as="geometry" />
        </mxCell>
        <mxCell id="NnTMt4p5JRez1Ccp5Ux5-13" style="edgeStyle=orthogonalEdgeStyle;rounded=0;orthogonalLoop=1;jettySize=auto;html=1;exitX=0;exitY=0.5;exitDx=0;exitDy=0;entryX=1;entryY=0.5;entryDx=0;entryDy=0;endArrow=none;endFill=0;" parent="1" source="NnTMt4p5JRez1Ccp5Ux5-8" target="3nQhZn90yMpWdJ_Ba0Em-6" edge="1">
          <mxGeometry relative="1" as="geometry">
            <Array as="points">
              <mxPoint x="340" y="495" />
              <mxPoint x="340" y="430" />
              <mxPoint x="580" y="430" />
              <mxPoint x="580" y="200" />
            </Array>
          </mxGeometry>
        </mxCell>
        <mxCell id="NnTMt4p5JRez1Ccp5Ux5-14" style="edgeStyle=orthogonalEdgeStyle;rounded=0;orthogonalLoop=1;jettySize=auto;html=1;exitX=0;exitY=0.5;exitDx=0;exitDy=0;entryX=1;entryY=0.5;entryDx=0;entryDy=0;endArrow=none;endFill=0;" parent="1" source="NnTMt4p5JRez1Ccp5Ux5-9" target="NnTMt4p5JRez1Ccp5Ux5-1" edge="1">
          <mxGeometry relative="1" as="geometry" />
        </mxCell>
        <mxCell id="NnTMt4p5JRez1Ccp5Ux5-15" style="edgeStyle=orthogonalEdgeStyle;rounded=0;orthogonalLoop=1;jettySize=auto;html=1;entryX=1;entryY=0.5;entryDx=0;entryDy=0;strokeColor=default;align=center;verticalAlign=middle;fontFamily=Helvetica;fontSize=11;fontColor=default;labelBackgroundColor=default;endArrow=none;endFill=0;" parent="1" source="NnTMt4p5JRez1Ccp5Ux5-10" target="NnTMt4p5JRez1Ccp5Ux5-3" edge="1">
          <mxGeometry relative="1" as="geometry">
            <Array as="points">
              <mxPoint x="160" y="575" />
              <mxPoint x="160" y="575" />
            </Array>
          </mxGeometry>
        </mxCell>
        <mxCell id="4iMe9j8oRdsham5QP47q-9" value="" style="group" parent="1" vertex="1" connectable="0">
          <mxGeometry x="343.15" y="670" width="181.2" height="140" as="geometry" />
        </mxCell>
        <mxCell id="4iMe9j8oRdsham5QP47q-2" value="" style="rounded=0;whiteSpace=wrap;html=1;" parent="4iMe9j8oRdsham5QP47q-9" vertex="1">
          <mxGeometry width="180" height="140" as="geometry" />
        </mxCell>
        <mxCell id="4iMe9j8oRdsham5QP47q-1" value="" style="pointerEvents=1;shadow=0;dashed=0;html=1;strokeColor=none;fillColor=#4495D1;labelPosition=center;verticalLabelPosition=bottom;verticalAlign=top;align=center;outlineConnect=0;shape=mxgraph.veeam.sd_card;rotation=-90;" parent="4iMe9j8oRdsham5QP47q-9" vertex="1">
          <mxGeometry x="90" y="20" width="82.4" height="100" as="geometry" />
        </mxCell>
        <mxCell id="4iMe9j8oRdsham5QP47q-3" value="GND" style="text;html=1;strokeColor=none;fillColor=none;align=center;verticalAlign=middle;whiteSpace=wrap;rounded=0;container=0;" parent="4iMe9j8oRdsham5QP47q-9" vertex="1">
          <mxGeometry y="10" width="50" height="20" as="geometry" />
        </mxCell>
        <mxCell id="4iMe9j8oRdsham5QP47q-4" value="VCC" style="text;html=1;strokeColor=none;fillColor=none;align=center;verticalAlign=middle;whiteSpace=wrap;rounded=0;container=0;" parent="4iMe9j8oRdsham5QP47q-9" vertex="1">
          <mxGeometry y="30" width="50" height="20" as="geometry" />
        </mxCell>
        <mxCell id="4iMe9j8oRdsham5QP47q-5" value="MISO" style="text;html=1;strokeColor=none;fillColor=none;align=center;verticalAlign=middle;whiteSpace=wrap;rounded=0;container=0;" parent="4iMe9j8oRdsham5QP47q-9" vertex="1">
          <mxGeometry y="50" width="50" height="20" as="geometry" />
        </mxCell>
        <mxCell id="4iMe9j8oRdsham5QP47q-6" value="MOSI" style="text;html=1;strokeColor=none;fillColor=none;align=center;verticalAlign=middle;whiteSpace=wrap;rounded=0;container=0;" parent="4iMe9j8oRdsham5QP47q-9" vertex="1">
          <mxGeometry y="70" width="50" height="20" as="geometry" />
        </mxCell>
        <mxCell id="4iMe9j8oRdsham5QP47q-7" value="SCK" style="text;html=1;strokeColor=none;fillColor=none;align=center;verticalAlign=middle;whiteSpace=wrap;rounded=0;container=0;" parent="4iMe9j8oRdsham5QP47q-9" vertex="1">
          <mxGeometry y="90" width="50" height="20" as="geometry" />
        </mxCell>
        <mxCell id="4iMe9j8oRdsham5QP47q-8" value="CS" style="text;html=1;strokeColor=none;fillColor=none;align=center;verticalAlign=middle;whiteSpace=wrap;rounded=0;container=0;" parent="4iMe9j8oRdsham5QP47q-9" vertex="1">
          <mxGeometry y="110" width="50" height="20" as="geometry" />
        </mxCell>
        <mxCell id="4iMe9j8oRdsham5QP47q-10" style="edgeStyle=orthogonalEdgeStyle;rounded=0;orthogonalLoop=1;jettySize=auto;html=1;entryX=1;entryY=0.5;entryDx=0;entryDy=0;endArrow=none;endFill=0;" parent="1" source="4iMe9j8oRdsham5QP47q-3" target="3nQhZn90yMpWdJ_Ba0Em-6" edge="1">
          <mxGeometry relative="1" as="geometry">
            <Array as="points">
              <mxPoint x="320" y="690" />
              <mxPoint x="320" y="650" />
              <mxPoint x="580" y="650" />
              <mxPoint x="580" y="200" />
            </Array>
          </mxGeometry>
        </mxCell>
        <mxCell id="4iMe9j8oRdsham5QP47q-11" style="edgeStyle=orthogonalEdgeStyle;rounded=0;orthogonalLoop=1;jettySize=auto;html=1;entryX=1;entryY=0.5;entryDx=0;entryDy=0;strokeColor=default;align=center;verticalAlign=middle;fontFamily=Helvetica;fontSize=11;fontColor=default;labelBackgroundColor=default;endArrow=none;endFill=0;" parent="1" source="4iMe9j8oRdsham5QP47q-4" target="NnTMt4p5JRez1Ccp5Ux5-3" edge="1">
          <mxGeometry relative="1" as="geometry" />
        </mxCell>
        <mxCell id="4iMe9j8oRdsham5QP47q-12" value="D12" style="text;html=1;strokeColor=none;fillColor=none;align=center;verticalAlign=middle;whiteSpace=wrap;rounded=0;container=0;" parent="1" vertex="1">
          <mxGeometry x="50" y="720" width="50" height="20" as="geometry" />
        </mxCell>
        <mxCell id="4iMe9j8oRdsham5QP47q-13" value="D11" style="text;html=1;strokeColor=none;fillColor=none;align=center;verticalAlign=middle;whiteSpace=wrap;rounded=0;container=0;" parent="1" vertex="1">
          <mxGeometry x="50" y="740" width="50" height="20" as="geometry" />
        </mxCell>
        <mxCell id="4iMe9j8oRdsham5QP47q-14" value="D13" style="text;html=1;strokeColor=none;fillColor=none;align=center;verticalAlign=middle;whiteSpace=wrap;rounded=0;container=0;" parent="1" vertex="1">
          <mxGeometry x="50" y="760" width="50" height="20" as="geometry" />
        </mxCell>
        <mxCell id="4iMe9j8oRdsham5QP47q-15" value="D10" style="text;html=1;strokeColor=none;fillColor=none;align=center;verticalAlign=middle;whiteSpace=wrap;rounded=0;container=0;" parent="1" vertex="1">
          <mxGeometry x="50" y="780" width="50" height="20" as="geometry" />
        </mxCell>
        <mxCell id="4iMe9j8oRdsham5QP47q-16" style="edgeStyle=orthogonalEdgeStyle;rounded=0;orthogonalLoop=1;jettySize=auto;html=1;entryX=1;entryY=0.5;entryDx=0;entryDy=0;strokeColor=default;align=center;verticalAlign=middle;fontFamily=Helvetica;fontSize=11;fontColor=default;labelBackgroundColor=default;endArrow=none;endFill=0;" parent="1" source="4iMe9j8oRdsham5QP47q-5" target="4iMe9j8oRdsham5QP47q-12" edge="1">
          <mxGeometry relative="1" as="geometry" />
        </mxCell>
        <mxCell id="4iMe9j8oRdsham5QP47q-17" style="edgeStyle=orthogonalEdgeStyle;rounded=0;orthogonalLoop=1;jettySize=auto;html=1;entryX=1;entryY=0.5;entryDx=0;entryDy=0;strokeColor=default;align=center;verticalAlign=middle;fontFamily=Helvetica;fontSize=11;fontColor=default;labelBackgroundColor=default;endArrow=none;endFill=0;" parent="1" source="4iMe9j8oRdsham5QP47q-6" target="4iMe9j8oRdsham5QP47q-13" edge="1">
          <mxGeometry relative="1" as="geometry" />
        </mxCell>
        <mxCell id="4iMe9j8oRdsham5QP47q-18" style="edgeStyle=orthogonalEdgeStyle;rounded=0;orthogonalLoop=1;jettySize=auto;html=1;entryX=1;entryY=0.5;entryDx=0;entryDy=0;strokeColor=default;align=center;verticalAlign=middle;fontFamily=Helvetica;fontSize=11;fontColor=default;labelBackgroundColor=default;endArrow=none;endFill=0;" parent="1" source="4iMe9j8oRdsham5QP47q-7" target="4iMe9j8oRdsham5QP47q-14" edge="1">
          <mxGeometry relative="1" as="geometry" />
        </mxCell>
        <mxCell id="4iMe9j8oRdsham5QP47q-19" style="edgeStyle=orthogonalEdgeStyle;rounded=0;orthogonalLoop=1;jettySize=auto;html=1;entryX=1;entryY=0.5;entryDx=0;entryDy=0;strokeColor=default;align=center;verticalAlign=middle;fontFamily=Helvetica;fontSize=11;fontColor=default;labelBackgroundColor=default;endArrow=none;endFill=0;" parent="1" source="4iMe9j8oRdsham5QP47q-8" target="4iMe9j8oRdsham5QP47q-15" edge="1">
          <mxGeometry relative="1" as="geometry" />
        </mxCell>
        <mxCell id="4iMe9j8oRdsham5QP47q-23" value="" style="group" parent="1" vertex="1" connectable="0">
          <mxGeometry x="343.15" y="870" width="220" height="120" as="geometry" />
        </mxCell>
        <mxCell id="4iMe9j8oRdsham5QP47q-22" value="" style="rounded=0;whiteSpace=wrap;html=1;fontFamily=Helvetica;fontSize=11;fontColor=default;labelBackgroundColor=default;" parent="4iMe9j8oRdsham5QP47q-23" vertex="1">
          <mxGeometry width="220" height="120" as="geometry" />
        </mxCell>
        <mxCell id="4iMe9j8oRdsham5QP47q-20" value="" style="verticalLabelPosition=bottom;shadow=0;dashed=0;align=center;html=1;verticalAlign=top;shape=mxgraph.electrical.opto_electronics.9_segment_display;pointerEvents=1;fontFamily=Helvetica;fontSize=11;fontColor=default;labelBackgroundColor=default;" parent="4iMe9j8oRdsham5QP47q-23" vertex="1">
          <mxGeometry x="62.150000000000034" y="11.950000000000045" width="74.7" height="96.1" as="geometry" />
        </mxCell>
        <mxCell id="4iMe9j8oRdsham5QP47q-21" value="" style="verticalLabelPosition=bottom;shadow=0;dashed=0;align=center;html=1;verticalAlign=top;shape=mxgraph.electrical.opto_electronics.9_segment_display;pointerEvents=1;fontFamily=Helvetica;fontSize=11;fontColor=default;labelBackgroundColor=default;" parent="4iMe9j8oRdsham5QP47q-23" vertex="1">
          <mxGeometry x="136.85000000000002" y="11.950000000000045" width="74.7" height="96.1" as="geometry" />
        </mxCell>
        <mxCell id="4iMe9j8oRdsham5QP47q-24" value="GND" style="text;html=1;strokeColor=none;fillColor=none;align=center;verticalAlign=middle;whiteSpace=wrap;rounded=0;container=0;" parent="4iMe9j8oRdsham5QP47q-23" vertex="1">
          <mxGeometry y="20" width="50" height="20" as="geometry" />
        </mxCell>
        <mxCell id="4iMe9j8oRdsham5QP47q-25" value="VCC" style="text;html=1;strokeColor=none;fillColor=none;align=center;verticalAlign=middle;whiteSpace=wrap;rounded=0;container=0;" parent="4iMe9j8oRdsham5QP47q-23" vertex="1">
          <mxGeometry y="40" width="50" height="20" as="geometry" />
        </mxCell>
        <mxCell id="4iMe9j8oRdsham5QP47q-26" value="SCL" style="text;html=1;strokeColor=none;fillColor=none;align=center;verticalAlign=middle;whiteSpace=wrap;rounded=0;container=0;" parent="4iMe9j8oRdsham5QP47q-23" vertex="1">
          <mxGeometry y="60" width="50" height="20" as="geometry" />
        </mxCell>
        <mxCell id="4iMe9j8oRdsham5QP47q-27" value="SDA" style="text;html=1;strokeColor=none;fillColor=none;align=center;verticalAlign=middle;whiteSpace=wrap;rounded=0;container=0;" parent="4iMe9j8oRdsham5QP47q-23" vertex="1">
          <mxGeometry y="80" width="50" height="20" as="geometry" />
        </mxCell>
        <mxCell id="4iMe9j8oRdsham5QP47q-28" style="edgeStyle=orthogonalEdgeStyle;rounded=0;orthogonalLoop=1;jettySize=auto;html=1;entryX=1;entryY=0.5;entryDx=0;entryDy=0;strokeColor=default;align=center;verticalAlign=middle;fontFamily=Helvetica;fontSize=11;fontColor=default;labelBackgroundColor=default;endArrow=none;endFill=0;" parent="1" source="4iMe9j8oRdsham5QP47q-24" target="3nQhZn90yMpWdJ_Ba0Em-6" edge="1">
          <mxGeometry relative="1" as="geometry">
            <Array as="points">
              <mxPoint x="310" y="900" />
              <mxPoint x="310" y="850" />
              <mxPoint x="580" y="850" />
              <mxPoint x="580" y="200" />
            </Array>
          </mxGeometry>
        </mxCell>
        <mxCell id="4iMe9j8oRdsham5QP47q-29" style="edgeStyle=orthogonalEdgeStyle;rounded=0;orthogonalLoop=1;jettySize=auto;html=1;entryX=1;entryY=0.5;entryDx=0;entryDy=0;strokeColor=default;align=center;verticalAlign=middle;fontFamily=Helvetica;fontSize=11;fontColor=default;labelBackgroundColor=default;endArrow=none;endFill=0;" parent="1" source="4iMe9j8oRdsham5QP47q-25" target="NnTMt4p5JRez1Ccp5Ux5-3" edge="1">
          <mxGeometry relative="1" as="geometry" />
        </mxCell>
        <mxCell id="4iMe9j8oRdsham5QP47q-30" value="A5" style="text;html=1;strokeColor=none;fillColor=none;align=center;verticalAlign=middle;whiteSpace=wrap;rounded=0;container=0;" parent="1" vertex="1">
          <mxGeometry x="50" y="930" width="50" height="20" as="geometry" />
        </mxCell>
        <mxCell id="4iMe9j8oRdsham5QP47q-31" value="A4" style="text;html=1;strokeColor=none;fillColor=none;align=center;verticalAlign=middle;whiteSpace=wrap;rounded=0;container=0;" parent="1" vertex="1">
          <mxGeometry x="50" y="950" width="50" height="20" as="geometry" />
        </mxCell>
        <mxCell id="4iMe9j8oRdsham5QP47q-32" style="edgeStyle=orthogonalEdgeStyle;rounded=0;orthogonalLoop=1;jettySize=auto;html=1;entryX=1;entryY=0.5;entryDx=0;entryDy=0;strokeColor=default;align=center;verticalAlign=middle;fontFamily=Helvetica;fontSize=11;fontColor=default;labelBackgroundColor=default;endArrow=none;endFill=0;" parent="1" source="4iMe9j8oRdsham5QP47q-27" target="4iMe9j8oRdsham5QP47q-31" edge="1">
          <mxGeometry relative="1" as="geometry" />
        </mxCell>
        <mxCell id="4iMe9j8oRdsham5QP47q-33" style="edgeStyle=orthogonalEdgeStyle;rounded=0;orthogonalLoop=1;jettySize=auto;html=1;entryX=1;entryY=0.5;entryDx=0;entryDy=0;strokeColor=default;align=center;verticalAlign=middle;fontFamily=Helvetica;fontSize=11;fontColor=default;labelBackgroundColor=default;endArrow=none;endFill=0;" parent="1" source="4iMe9j8oRdsham5QP47q-26" target="4iMe9j8oRdsham5QP47q-30" edge="1">
          <mxGeometry relative="1" as="geometry" />
        </mxCell>
        <mxCell id="4iMe9j8oRdsham5QP47q-36" style="edgeStyle=orthogonalEdgeStyle;rounded=0;orthogonalLoop=1;jettySize=auto;html=1;strokeColor=default;align=center;verticalAlign=middle;fontFamily=Helvetica;fontSize=11;fontColor=default;labelBackgroundColor=default;endArrow=none;endFill=0;entryX=0;entryY=0.8;entryDx=0;entryDy=0;" parent="1" source="4iMe9j8oRdsham5QP47q-34" target="4iMe9j8oRdsham5QP47q-35" edge="1">
          <mxGeometry relative="1" as="geometry" />
        </mxCell>
        <mxCell id="4iMe9j8oRdsham5QP47q-34" value="D3" style="text;html=1;strokeColor=none;fillColor=none;align=center;verticalAlign=middle;whiteSpace=wrap;rounded=0;container=0;" parent="1" vertex="1">
          <mxGeometry x="50" y="1030" width="50" height="20" as="geometry" />
        </mxCell>
        <mxCell id="4iMe9j8oRdsham5QP47q-37" style="edgeStyle=orthogonalEdgeStyle;rounded=0;orthogonalLoop=1;jettySize=auto;html=1;exitX=1;exitY=0.8;exitDx=0;exitDy=0;entryX=1;entryY=0.5;entryDx=0;entryDy=0;strokeColor=default;align=center;verticalAlign=middle;fontFamily=Helvetica;fontSize=11;fontColor=default;labelBackgroundColor=default;endArrow=none;endFill=0;" parent="1" source="4iMe9j8oRdsham5QP47q-35" target="3nQhZn90yMpWdJ_Ba0Em-6" edge="1">
          <mxGeometry relative="1" as="geometry">
            <Array as="points">
              <mxPoint x="580" y="1039" />
              <mxPoint x="580" y="200" />
            </Array>
          </mxGeometry>
        </mxCell>
        <mxCell id="4iMe9j8oRdsham5QP47q-35" value="" style="html=1;shape=mxgraph.electrical.electro-mechanical.pushbutton;aspect=fixed;elSwitchState=off;fontFamily=Helvetica;fontSize=11;fontColor=default;labelBackgroundColor=default;" parent="1" vertex="1">
          <mxGeometry x="427.75" y="1023" width="75" height="20" as="geometry" />
        </mxCell>
      </root>
    </mxGraphModel>
  </diagram>
</mxfile>
